shantell--extrabold.ufo
<glyph name="dollar" format="2">
  <advance width="603"/>
  <unicode hex="0024"/>
  <outline>
    <contour>
      <point x="262" y="-9" type="curve" smooth="yes"/>
      <point x="459" y="-9"/>
      <point x="556" y="46"/>
      <point x="556" y="168" type="curve" smooth="yes"/>
      <point x="556" y="362"/>
      <point x="226" y="385"/>
      <point x="226" y="451" type="curve" smooth="yes"/>
      <point x="226" y="504"/>
      <point x="312" y="530"/>
      <point x="488" y="540" type="curve" smooth="yes"/>
      <point x="529" y="542"/>
      <point x="554" y="576"/>
      <point x="554" y="615" type="curve" smooth="yes"/>
      <point x="554" y="664"/>
      <point x="530" y="710"/>
      <point x="458" y="710" type="curve" smooth="yes"/>
      <point x="329" y="710"/>
      <point x="47" y="639"/>
      <point x="47" y="455" type="curve" smooth="yes"/>
      <point x="47" y="257"/>
      <point x="382.9327678114" y="293.3697770374"/>
      <point x="405" y="172" type="curve"/>
      <point x="350.4439060533" y="158.6640659241"/>
      <point x="318.1044776119" y="158"/>
      <point x="241" y="158" type="curve" smooth="yes"/>
      <point x="166" y="158"/>
      <point x="148" y="185"/>
      <point x="112" y="185" type="curve" smooth="yes"/>
      <point x="70" y="185"/>
      <point x="60" y="164"/>
      <point x="60" y="129" type="curve" smooth="yes"/>
      <point x="60" y="59"/>
      <point x="131" y="-9"/>
    </contour>
    <contour>
      <point x="321" y="448" type="curve" smooth="yes"/>
      <point x="353" y="448"/>
      <point x="371" y="470"/>
      <point x="383" y="512" type="curve" smooth="yes"/>
      <point x="407" y="604"/>
      <point x="407" y="688"/>
      <point x="392" y="760" type="curve" smooth="yes"/>
      <point x="383" y="795"/>
      <point x="347" y="821"/>
      <point x="307" y="821" type="curve" smooth="yes"/>
      <point x="257" y="821"/>
      <point x="216" y="775"/>
      <point x="224" y="727" type="curve" smooth="yes"/>
      <point x="232" y="679"/>
      <point x="245" y="633"/>
      <point x="251" y="563" type="curve" smooth="yes"/>
      <point x="258" y="484"/>
      <point x="266" y="447"/>
    </contour>
    <contour>
      <point x="278" y="212" type="curve" smooth="yes"/>
      <point x="245" y="212"/>
      <point x="221" y="192"/>
      <point x="218" y="150" type="curve" smooth="yes"/>
      <point x="212" y="56"/>
      <point x="201" y="16"/>
      <point x="210" y="-65" type="curve" smooth="yes"/>
      <point x="214" y="-97"/>
      <point x="251" y="-138"/>
      <point x="321" y="-138" type="curve" smooth="yes"/>
      <point x="358" y="-138"/>
      <point x="375" y="-113"/>
      <point x="373" y="-51" type="curve" smooth="yes"/>
      <point x="370" y="2"/>
      <point x="355" y="68"/>
      <point x="346" y="117" type="curve" smooth="yes"/>
      <point x="334" y="177"/>
      <point x="315" y="212"/>
    </contour>
  </outline>
</glyph>
<glyph name="asterisk" format="2">
  <advance width="516"/>
  <unicode hex="002A"/>
  <outline>
    <contour>
      <point x="277" y="766"/>
      <point x="320" y="708"/>
      <point x="320" y="570" type="curve" smooth="yes"/>
      <point x="320" y="499"/>
      <point x="316" y="385"/>
      <point x="332" y="298" type="curve" smooth="yes"/>
      <point x="340" y="254"/>
      <point x="322" y="226"/>
      <point x="274" y="226" type="curve" smooth="yes"/>
      <point x="239" y="226"/>
      <point x="220" y="246"/>
      <point x="214" y="274" type="curve" smooth="yes"/>
      <point x="195" y="367"/>
      <point x="200" y="493"/>
      <point x="200" y="570" type="curve" smooth="yes"/>
      <point x="200" y="677"/>
      <point x="169" y="680"/>
      <point x="169" y="721" type="curve" smooth="yes"/>
      <point x="169" y="749"/>
      <point x="184" y="766"/>
      <point x="219" y="766" type="curve" smooth="yes"/>
    </contour>
    <contour>
      <point x="441" y="596" type="curve" smooth="yes"/>
      <point x="385" y="519"/>
      <point x="235" y="440"/>
      <point x="171" y="341" type="curve" smooth="yes"/>
      <point x="158" y="321"/>
      <point x="144" y="314"/>
      <point x="123" y="314" type="curve" smooth="yes"/>
      <point x="91" y="314"/>
      <point x="61" y="343"/>
      <point x="61" y="375" type="curve" smooth="yes"/>
      <point x="61" y="386"/>
      <point x="62" y="399"/>
      <point x="81" y="424" type="curve" smooth="yes"/>
      <point x="142" y="505"/>
      <point x="305" y="604"/>
      <point x="351" y="671" type="curve" smooth="yes"/>
      <point x="367" y="695"/>
      <point x="383" y="708"/>
      <point x="407" y="708" type="curve" smooth="yes"/>
      <point x="443" y="708"/>
      <point x="459" y="682"/>
      <point x="459" y="651" type="curve" smooth="yes"/>
      <point x="459" y="628"/>
      <point x="452" y="612"/>
    </contour>
    <contour>
      <point x="115" y="639" type="curve" smooth="yes"/>
      <point x="187" y="600"/>
      <point x="332" y="552"/>
      <point x="451" y="488" type="curve" smooth="yes"/>
      <point x="471" y="478"/>
      <point x="483" y="459"/>
      <point x="483" y="434" type="curve" smooth="yes"/>
      <point x="483" y="402"/>
      <point x="466" y="373"/>
      <point x="430" y="373" type="curve" smooth="yes"/>
      <point x="411" y="373"/>
      <point x="403" y="377"/>
      <point x="364" y="398" type="curve" smooth="yes"/>
      <point x="274" y="446"/>
      <point x="127" y="496"/>
      <point x="57" y="536" type="curve" smooth="yes"/>
      <point x="18" y="559"/>
      <point x="9" y="591"/>
      <point x="9" y="612" type="curve" smooth="yes"/>
      <point x="9" y="644"/>
      <point x="28" y="660"/>
      <point x="56" y="660" type="curve" smooth="yes"/>
      <point x="76" y="660"/>
      <point x="86" y="654"/>
    </contour>
  </outline>
</glyph>
<glyph name="period" format="2">
  <advance width="329"/>
  <unicode hex="002E"/>
  <outline>
    <contour>
      <point x="187" y="-16" type="curve" smooth="yes"/>
      <point x="251" y="-16"/>
      <point x="284" y="18"/>
      <point x="284.0" y="65" type="curve" smooth="yes"/>
      <point x="284" y="128"/>
      <point x="243" y="197"/>
      <point x="139" y="197" type="curve" smooth="yes"/>
      <point x="80" y="197.0"/>
      <point x="45.0" y="159"/>
      <point x="45" y="101" type="curve" smooth="yes"/>
      <point x="45" y="22"/>
      <point x="93" y="-16"/>
    </contour>
  </outline>
</glyph>
<glyph name="five" format="2">
  <advance width="700"/>
  <unicode hex="0035"/>
  <outline>
    <contour>
      <point x="601" y="543" type="curve" smooth="yes"/>
      <point x="438" y="543"/>
      <point x="362" y="524"/>
      <point x="170" y="527" type="curve"/>
      <point x="239" y="578" type="line"/>
      <point x="225" y="549"/>
      <point x="222" y="537"/>
      <point x="222" y="517" type="curve" smooth="yes"/>
      <point x="222" y="495"/>
      <point x="231" y="489"/>
      <point x="381" y="466" type="curve" smooth="yes"/>
      <point x="595" y="429"/>
      <point x="641" y="372"/>
      <point x="641" y="257" type="curve" smooth="yes"/>
      <point x="641" y="99"/>
      <point x="483" y="-12"/>
      <point x="242" y="-12" type="curve" smooth="yes"/>
      <point x="123" y="-12"/>
      <point x="69" y="40"/>
      <point x="69" y="118" type="curve" smooth="yes"/>
      <point x="69" y="161"/>
      <point x="91" y="195"/>
      <point x="136" y="195" type="curve" smooth="yes"/>
      <point x="171" y="195"/>
      <point x="175" y="158"/>
      <point x="233" y="158" type="curve" smooth="yes"/>
      <point x="329" y="158"/>
      <point x="457" y="193"/>
      <point x="457" y="255" type="curve" smooth="yes"/>
      <point x="457" y="281"/>
      <point x="446" y="298"/>
      <point x="365" y="312" type="curve" smooth="yes"/>
      <point x="90" y="361"/>
      <point x="45" y="392"/>
      <point x="45" y="507" type="curve" smooth="yes"/>
      <point x="45" y="544"/>
      <point x="54" y="591"/>
      <point x="73" y="647" type="curve" smooth="yes"/>
      <point x="84" y="683"/>
      <point x="98" y="700"/>
      <point x="134" y="700" type="curve" smooth="yes"/>
      <point x="324" y="700"/>
      <point x="392" y="716"/>
      <point x="534" y="716" type="curve" smooth="yes"/>
      <point x="620" y="716"/>
      <point x="666" y="662"/>
      <point x="663" y="603" type="curve" smooth="yes"/>
      <point x="662" y="567"/>
      <point x="637" y="543"/>
    </contour>
  </outline>
</glyph>
<glyph name="nine" format="2">
  <advance width="700"/>
  <unicode hex="0039"/>
  <outline>
    <contour>
      <point x="462" y="525" type="curve" smooth="yes"/>
      <point x="501" y="525"/>
      <point x="518" y="558"/>
      <point x="518" y="590" type="curve" smooth="yes"/>
      <point x="518" y="664"/>
      <point x="463.7033898305" y="710"/>
      <point x="369" y="710" type="curve" smooth="yes"/>
      <point x="140" y="710"/>
      <point x="32" y="570"/>
      <point x="32" y="442" type="curve" smooth="yes"/>
      <point x="32" y="322"/>
      <point x="119" y="240"/>
      <point x="271" y="240" type="curve" smooth="yes"/>
      <point x="394" y="240"/>
      <point x="481.5653363309" y="289.8945195109"/>
      <point x="560" y="414" type="curve"/>
      <point x="455" y="361" type="line"/>
      <point x="455" y="243.1201413428"/>
      <point x="458.2370330897" y="148.4118782989"/>
      <point x="468" y="83" type="curve" smooth="yes"/>
      <point x="477.5202892732" y="29.0516941185"/>
      <point x="521" y="-9"/>
      <point x="580" y="-9" type="curve" smooth="yes"/>
      <point x="625" y="-9"/>
      <point x="650" y="14"/>
      <point x="650" y="67" type="curve" smooth="yes"/>
      <point x="650" y="105"/>
      <point x="633" y="152"/>
      <point x="633" y="283" type="curve" smooth="yes"/>
      <point x="633" y="335"/>
      <point x="634" y="388"/>
      <point x="637" y="481" type="curve"/>
      <point x="663" y="601"/>
      <point x="630" y="666"/>
      <point x="533" y="666" type="curve" smooth="yes"/>
      <point x="498" y="666"/>
      <point x="474" y="642"/>
      <point x="474" y="600" type="curve" smooth="yes"/>
      <point x="474" y="448.2994652406"/>
      <point x="381.5376884422" y="403"/>
      <point x="274" y="403" type="curve" smooth="yes"/>
      <point x="225.5428571429" y="403"/>
      <point x="210" y="422"/>
      <point x="210" y="448" type="curve" smooth="yes"/>
      <point x="210" y="485"/>
      <point x="251.6890243902" y="539"/>
      <point x="369" y="539" type="curve" smooth="yes"/>
      <point x="415" y="539"/>
      <point x="436" y="525"/>
    </contour>
  </outline>
</glyph>
<glyph name="G" format="2">
  <advance width="818"/>
  <unicode hex="0047"/>
  <anchor x="451" y="700" name="top"/>
  <anchor x="400" y="0" name="bottom"/>
  <outline>
    <contour>
      <point x="430" y="246" type="curve" smooth="yes"/>
      <point x="485" y="246"/>
      <point x="547" y="273"/>
      <point x="711" y="273" type="curve" smooth="yes"/>
      <point x="777" y="273"/>
      <point x="805" y="320"/>
      <point x="805" y="371" type="curve" smooth="yes"/>
      <point x="805" y="416"/>
      <point x="786" y="439"/>
      <point x="689" y="439" type="curve" smooth="yes"/>
      <point x="572" y="437"/>
      <point x="482" y="422"/>
      <point x="402" y="398" type="curve" smooth="yes"/>
      <point x="352" y="384"/>
      <point x="339" y="368"/>
      <point x="339" y="333" type="curve" smooth="yes"/>
      <point x="339" y="283"/>
      <point x="381" y="246"/>
    </contour>
    <contour>
      <point x="719" y="-109" type="curve" smooth="yes"/>
      <point x="744" y="-109"/>
      <point x="783" y="-91"/>
      <point x="783" y="-51" type="curve" smooth="yes"/>
      <point x="783" y="-28"/>
      <point x="779" y="-19"/>
      <point x="757" y="28" type="curve" smooth="yes"/>
      <point x="724" y="95"/>
      <point x="714" y="147"/>
      <point x="714" y="289" type="curve" smooth="yes"/>
      <point x="714" y="326"/>
      <point x="684" y="348"/>
      <point x="630" y="348" type="curve" smooth="yes"/>
      <point x="585" y="348"/>
      <point x="571" y="335"/>
      <point x="546" y="296" type="curve" smooth="yes"/>
      <point x="482" y="196"/>
      <point x="385" y="167"/>
      <point x="309" y="167" type="curve" smooth="yes"/>
      <point x="256" y="167"/>
      <point x="229" y="195"/>
      <point x="229" y="254" type="curve" smooth="yes"/>
      <point x="229" y="364"/>
      <point x="340" y="514"/>
      <point x="458" y="514" type="curve" smooth="yes"/>
      <point x="501" y="514"/>
      <point x="468" y="465"/>
      <point x="518" y="465" type="curve" smooth="yes"/>
      <point x="590" y="465"/>
      <point x="638" y="533"/>
      <point x="638" y="613" type="curve" smooth="yes"/>
      <point x="638" y="667"/>
      <point x="601" y="708"/>
      <point x="510" y="708" type="curve" smooth="yes"/>
      <point x="273" y="708"/>
      <point x="40" y="479"/>
      <point x="40" y="237" type="curve" smooth="yes"/>
      <point x="40" y="88"/>
      <point x="133" y="-10"/>
      <point x="292" y="-10" type="curve" smooth="yes"/>
      <point x="403" y="-10"/>
      <point x="524" y="33"/>
      <point x="576" y="120" type="curve"/>
      <point x="550" y="124" type="line"/>
      <point x="565" y="31"/>
      <point x="578" y="-11"/>
      <point x="601" y="-51" type="curve" smooth="yes"/>
      <point x="627" y="-92"/>
      <point x="664" y="-109"/>
    </contour>
  </outline>
</glyph>
<glyph name="exclamdown" format="2">
  <advance width="309"/>
  <unicode hex="00A1"/>
  <outline>
    <contour>
      <point x="74" y="-142" type="curve" smooth="yes"/>
      <point x="74.0" y="-100.3716814159292"/>
      <point x="79.0" y="-52.23893805309734"/>
      <point x="79" y="5" type="curve" smooth="yes"/>
      <point x="79" y="67"/>
      <point x="73" y="131"/>
      <point x="73" y="170" type="curve" smooth="yes"/>
      <point x="73" y="228"/>
      <point x="100" y="256"/>
      <point x="143" y="256" type="curve" smooth="yes"/>
      <point x="190" y="256"/>
      <point x="221" y="236"/>
      <point x="231" y="190" type="curve" smooth="yes"/>
      <point x="242" y="134"/>
      <point x="246" y="95"/>
      <point x="246" y="31" type="curve" smooth="yes"/>
      <point x="246.0" y="-30.932584269662918"/>
      <point x="238.6182105878481" y="-100.01915998683545"/>
      <point x="241" y="-181" type="curve" smooth="yes"/>
      <point x="243" y="-226"/>
      <point x="227" y="-260"/>
      <point x="175" y="-260" type="curve" smooth="yes"/>
      <point x="113" y="-260"/>
      <point x="74" y="-226"/>
    </contour>
    <contour>
      <point x="137" y="505" type="curve" smooth="yes"/>
      <point x="80" y="505"/>
      <point x="50" y="478"/>
      <point x="50" y="435" type="curve" smooth="yes"/>
      <point x="50" y="380"/>
      <point x="88" y="327"/>
      <point x="170" y="327" type="curve" smooth="yes"/>
      <point x="223" y="327"/>
      <point x="259" y="356"/>
      <point x="259" y="416" type="curve" smooth="yes"/>
      <point x="259" y="473"/>
      <point x="213" y="505"/>
    </contour>
  </outline>
</glyph>
<glyph name="oslash" format="2">
  <advance width="678"/>
  <unicode hex="00F8"/>
  <anchor x="334" y="515" name="top"/>
  <outline>
    <contour>
      <point x="147" y="154"/>
      <point x="98" y="91"/>
      <point x="57" y="22" type="curve" smooth="yes"/>
      <point x="19" y="-42"/>
      <point x="68" y="-118"/>
      <point x="128" y="-118" type="curve" smooth="yes"/>
      <point x="160" y="-118"/>
      <point x="187" y="-98"/>
      <point x="209" y="-60" type="curve" smooth="yes"/>
      <point x="241" y="-5"/>
      <point x="284" y="40"/>
      <point x="284" y="69" type="curve" smooth="yes"/>
      <point x="284" y="132"/>
      <point x="249" y="154"/>
      <point x="201" y="154" type="curve" smooth="yes"/>
    </contour>
    <contour>
      <point x="605" y="397" type="curve" smooth="yes"/>
      <point x="695" y="487"/>
      <point x="679" y="581"/>
      <point x="591" y="581" type="curve" smooth="yes"/>
      <point x="562" y="581"/>
      <point x="531" y="569"/>
      <point x="493" y="528" type="curve" smooth="yes"/>
      <point x="367.98343575564206" y="388.63727264563374"/>
      <point x="300.0" y="319.0"/>
      <point x="300" y="242" type="curve" smooth="yes"/>
      <point x="300.0" y="222.2"/>
      <point x="311.2075471698113" y="212.0"/>
      <point x="333" y="212" type="curve" smooth="yes"/>
      <point x="370.7777777777778" y="212.0"/>
      <point x="431.5921112103118" y="223.59211121031183"/>
    </contour>
    <contour>
      <point x="347" y="-12" type="curve" smooth="yes"/>
      <point x="506" y="-12"/>
      <point x="627" y="108"/>
      <point x="627" y="266" type="curve" smooth="yes"/>
      <point x="627.0" y="426.15999999999997"/>
      <point x="523.0" y="526.0"/>
      <point x="343" y="526" type="curve" smooth="yes"/>
      <point x="253.27777777777777" y="526.0"/>
      <point x="153.0" y="448.0"/>
      <point x="153" y="375" type="curve" smooth="yes"/>
      <point x="153.0" y="315.0"/>
      <point x="178.0" y="299.0"/>
      <point x="203" y="299" type="curve" smooth="yes"/>
      <point x="235.0" y="299.0"/>
      <point x="252.0" y="309.0"/>
      <point x="280" y="337" type="curve" smooth="yes"/>
      <point x="303.8574918765375" y="360.8574918765375"/>
      <point x="325.0" y="367.0"/>
      <point x="355" y="367" type="curve" smooth="yes"/>
      <point x="415.0" y="367.0"/>
      <point x="457.0" y="324.13483146067415"/>
      <point x="457" y="258" type="curve" smooth="yes"/>
      <point x="457" y="196"/>
      <point x="409" y="154"/>
      <point x="342" y="154" type="curve" smooth="yes"/>
      <point x="260" y="154"/>
      <point x="208" y="196"/>
      <point x="208" y="259" type="curve" smooth="yes"/>
      <point x="208.0" y="302.3820224719101"/>
      <point x="249.60175624849518" y="345.8774634610754"/>
      <point x="289" y="358" type="curve" smooth="yes"/>
      <point x="356.5178024057243" y="378.8510860370619"/>
      <point x="374.0" y="416.5762711864407"/>
      <point x="374" y="466" type="curve" smooth="yes"/>
      <point x="374" y="511"/>
      <point x="336" y="529"/>
      <point x="297" y="529" type="curve" smooth="yes"/>
      <point x="171" y="529"/>
      <point x="37" y="395"/>
      <point x="37" y="266" type="curve" smooth="yes"/>
      <point x="37" y="104"/>
      <point x="167" y="-12"/>
    </contour>
  </outline>
</glyph>
<glyph name="ij" format="2">
  <advance width="693"/>
  <unicode hex="0133"/>
  <outline>
    <contour>
      <point x="182" y="-10" type="curve" smooth="yes"/>
      <point x="224" y="-10"/>
      <point x="246" y="17"/>
      <point x="246" y="62" type="curve" smooth="yes"/>
      <point x="246" y="131"/>
      <point x="259" y="351"/>
      <point x="258" y="415" type="curve" smooth="yes"/>
      <point x="257" y="488"/>
      <point x="219" y="526"/>
      <point x="173" y="526" type="curve" smooth="yes"/>
      <point x="118" y="526"/>
      <point x="56" y="460"/>
      <point x="56" y="386" type="curve" smooth="yes"/>
      <point x="56" y="305"/>
      <point x="65" y="258"/>
      <point x="65" y="98" type="curve" smooth="yes"/>
      <point x="65" y="41"/>
      <point x="117" y="-10"/>
    </contour>
    <contour>
      <point x="180" y="584" type="curve" smooth="yes"/>
      <point x="244" y="584"/>
      <point x="268.0" y="628.5301204819"/>
      <point x="268" y="672" type="curve" smooth="yes"/>
      <point x="268" y="735"/>
      <point x="226.6306306306" y="813.0"/>
      <point x="156" y="813" type="curve" smooth="yes"/>
      <point x="92" y="813"/>
      <point x="47" y="777"/>
      <point x="47" y="711" type="curve" smooth="yes"/>
      <point x="47.0" y="645.4180327869"/>
      <point x="107" y="584"/>
    </contour>
    <contour>
      <point x="558" y="442" type="curve" smooth="yes"/>
      <point x="592" y="262"/>
      <point x="611.0" y="103.83794466403162"/>
      <point x="611" y="-40" type="curve" smooth="yes"/>
      <point x="611.0" y="-185.0"/>
      <point x="539.9396984924623" y="-260.0"/>
      <point x="432" y="-260" type="curve" smooth="yes"/>
      <point x="357.21649484536084" y="-260.0"/>
      <point x="315.0" y="-210.78947368421055"/>
      <point x="315" y="-150" type="curve" smooth="yes"/>
      <point x="315.0" y="-108.44262295081967"/>
      <point x="335.0" y="-85.0"/>
      <point x="364" y="-85" type="curve" smooth="yes"/>
      <point x="378.76" y="-85.0"/>
      <point x="387.0625" y="-88.0"/>
      <point x="405" y="-88" type="curve" smooth="yes"/>
      <point x="428.2" y="-88.0"/>
      <point x="441.0" y="-64.20967741935485"/>
      <point x="441" y="-29" type="curve" smooth="yes"/>
      <point x="441.0" y="182.47196261682242"/>
      <point x="388.0" y="265.0467289719626"/>
      <point x="388" y="402" type="curve" smooth="yes"/>
      <point x="388.0" y="490.0"/>
      <point x="433.01075268817203" y="524.0"/>
      <point x="479" y="524" type="curve" smooth="yes"/>
      <point x="522.0909090909091" y="524.0"/>
      <point x="543.9841481774794" y="508.0747300204543"/>
    </contour>
    <contour>
      <point x="510" y="584" type="curve" smooth="yes"/>
      <point x="574" y="584"/>
      <point x="598.0" y="628.5301204819"/>
      <point x="598" y="672" type="curve" smooth="yes"/>
      <point x="598" y="735"/>
      <point x="556.6306306306" y="813.0"/>
      <point x="486" y="813" type="curve" smooth="yes"/>
      <point x="422" y="813"/>
      <point x="377" y="777"/>
      <point x="377" y="711" type="curve" smooth="yes"/>
      <point x="377.0" y="645.4180327869"/>
      <point x="437" y="584"/>
    </contour>
  </outline>
</glyph>
<glyph name="lslash" format="2">
  <advance width="403"/>
  <unicode hex="0142"/>
  <note>
just draw this
</note>
  <outline>
    <contour>
      <point x="161" y="298" type="curve" smooth="yes"/>
      <point x="124" y="284"/>
      <point x="90" y="275"/>
      <point x="62" y="275" type="curve" smooth="yes"/>
      <point x="-9" y="275"/>
      <point x="-58" y="340"/>
      <point x="-7" y="376" type="curve" smooth="yes"/>
      <point x="76" y="435"/>
      <point x="141" y="455"/>
      <point x="228" y="502" type="curve" smooth="yes"/>
      <point x="263" y="521"/>
      <point x="294" y="528"/>
      <point x="319" y="528" type="curve" smooth="yes"/>
      <point x="422" y="528"/>
      <point x="429" y="433"/>
      <point x="381" y="407" type="curve" smooth="yes"/>
      <point x="239" y="329"/>
      <point x="197" y="311"/>
    </contour>
    <component base="l"/>
  </outline>
</glyph>
<glyph name="oe" format="2">
  <advance width="1054"/>
  <unicode hex="0153"/>
  <outline>
    <contour>
      <point x="347" y="-12" type="curve" smooth="yes"/>
      <point x="506" y="-12"/>
      <point x="627" y="108"/>
      <point x="627" y="266" type="curve" smooth="yes"/>
      <point x="627" y="420"/>
      <point x="523" y="516"/>
      <point x="343" y="516" type="curve" smooth="yes"/>
      <point x="258" y="516"/>
      <point x="163" y="428"/>
      <point x="163" y="345" type="curve" smooth="yes"/>
      <point x="163" y="285"/>
      <point x="188" y="269"/>
      <point x="213" y="269" type="curve" smooth="yes"/>
      <point x="245" y="269"/>
      <point x="262" y="279"/>
      <point x="290" y="307" type="curve" smooth="yes"/>
      <point x="315" y="332"/>
      <point x="329" y="347"/>
      <point x="355" y="347" type="curve" smooth="yes"/>
      <point x="415" y="347"/>
      <point x="457" y="312"/>
      <point x="457" y="258" type="curve" smooth="yes"/>
      <point x="457" y="196"/>
      <point x="409" y="154"/>
      <point x="342" y="154" type="curve" smooth="yes"/>
      <point x="260" y="154"/>
      <point x="208" y="196"/>
      <point x="208" y="259" type="curve" smooth="yes"/>
      <point x="208" y="298"/>
      <point x="250" y="336"/>
      <point x="289" y="348" type="curve" smooth="yes"/>
      <point x="357" y="369"/>
      <point x="374" y="412"/>
      <point x="374" y="466" type="curve" smooth="yes"/>
      <point x="374" y="511"/>
      <point x="336" y="529"/>
      <point x="297" y="529" type="curve" smooth="yes"/>
      <point x="171" y="529"/>
      <point x="37" y="395"/>
      <point x="37" y="266" type="curve" smooth="yes"/>
      <point x="37" y="104"/>
      <point x="167" y="-12"/>
    </contour>
    <contour>
      <point x="714" y="186" type="curve" smooth="yes"/>
      <point x="854" y="186"/>
      <point x="973" y="234"/>
      <point x="973" y="349" type="curve" smooth="yes"/>
      <point x="973" y="464"/>
      <point x="890" y="525"/>
      <point x="770" y="525" type="curve" smooth="yes"/>
      <point x="588" y="525"/>
      <point x="472" y="357"/>
      <point x="472" y="210" type="curve" smooth="yes"/>
      <point x="472" y="82"/>
      <point x="552" y="-10"/>
      <point x="736" y="-10" type="curve" smooth="yes"/>
      <point x="910" y="-10"/>
      <point x="1020" y="69"/>
      <point x="1020" y="145" type="curve" smooth="yes"/>
      <point x="1020" y="181"/>
      <point x="1006" y="199"/>
      <point x="977" y="199" type="curve" smooth="yes"/>
      <point x="922" y="199"/>
      <point x="879" y="146"/>
      <point x="719" y="146" type="curve" smooth="yes"/>
      <point x="660" y="146"/>
      <point x="641" y="158"/>
      <point x="641" y="187" type="curve" smooth="yes"/>
      <point x="641" y="271"/>
      <point x="705" y="355"/>
      <point x="794" y="355" type="curve" smooth="yes"/>
      <point x="808" y="355"/>
      <point x="814" y="349"/>
      <point x="814" y="338" type="curve" smooth="yes"/>
      <point x="814" y="307"/>
      <point x="743" y="281"/>
      <point x="695" y="281" type="curve" smooth="yes"/>
      <point x="663" y="281"/>
      <point x="645" y="286"/>
      <point x="631" y="286" type="curve" smooth="yes"/>
      <point x="610" y="286"/>
      <point x="601" y="276"/>
      <point x="601" y="256" type="curve" smooth="yes"/>
      <point x="601" y="219"/>
      <point x="644" y="186"/>
    </contour>
  </outline>
</glyph>
<glyph name="tbar" format="2">
  <advance width="503"/>
  <unicode hex="0167"/>
  <outline>
    <contour>
      <point x="85" y="165.0" type="curve" smooth="yes"/>
      <point x="124" y="165.0"/>
      <point x="210" y="200.0"/>
      <point x="338" y="206.0" type="curve" smooth="yes"/>
      <point x="373" y="208"/>
      <point x="388.0" y="223"/>
      <point x="388.0" y="249" type="curve" smooth="yes"/>
      <point x="388" y="289"/>
      <point x="365" y="324.0"/>
      <point x="293" y="324" type="curve" smooth="yes"/>
      <point x="204" y="324"/>
      <point x="119" y="301"/>
      <point x="44" y="285" type="curve" smooth="yes"/>
      <point x="16" y="279"/>
      <point x="4.0" y="257.0"/>
      <point x="4" y="234" type="curve" smooth="yes"/>
      <point x="4.0" y="192.0"/>
      <point x="34" y="165.0"/>
    </contour>
    <contour>
      <point x="224" y="298" type="curve" smooth="yes"/>
      <point x="224" y="412"/>
      <point x="244" y="490"/>
      <point x="244" y="558" type="curve" smooth="yes"/>
      <point x="244" y="669.0"/>
      <point x="199.0" y="716.0"/>
      <point x="128" y="716" type="curve" smooth="yes"/>
      <point x="75" y="716"/>
      <point x="54.0" y="690.4032258064516"/>
      <point x="54" y="647" type="curve" smooth="yes"/>
      <point x="54" y="612"/>
      <point x="68" y="581"/>
      <point x="68" y="523" type="curve" smooth="yes"/>
      <point x="68.0" y="441.47058823529414"/>
      <point x="51.0" y="386.1470588235294"/>
      <point x="51" y="292" type="curve" smooth="yes"/>
      <point x="51" y="109"/>
      <point x="119" y="-13"/>
      <point x="317" y="-13" type="curve" smooth="yes"/>
      <point x="417.0" y="-13.0"/>
      <point x="470.0" y="35.89147286821705"/>
      <point x="470" y="106" type="curve" smooth="yes"/>
      <point x="470" y="150"/>
      <point x="455" y="171"/>
      <point x="426" y="171" type="curve" smooth="yes"/>
      <point x="396" y="171"/>
      <point x="386" y="151"/>
      <point x="333" y="151" type="curve" smooth="yes"/>
      <point x="261.0" y="151.0"/>
      <point x="224.0" y="188.55474452554745"/>
    </contour>
    <contour>
      <point x="101" y="350" type="curve" smooth="yes"/>
      <point x="194.0" y="366.0"/>
      <point x="300.0" y="376.0"/>
      <point x="441" y="384" type="curve" smooth="yes"/>
      <point x="467" y="386"/>
      <point x="482" y="408"/>
      <point x="482" y="432" type="curve" smooth="yes"/>
      <point x="482.0" y="481.6601941747573"/>
      <point x="427.0" y="525.0"/>
      <point x="357" y="525" type="curve" smooth="yes"/>
      <point x="272.4193548387097" y="525.0"/>
      <point x="177" y="519"/>
      <point x="95" y="490" type="curve" smooth="yes"/>
      <point x="33.72354726232341" y="467.2684126940877"/>
      <point x="13.0" y="438.75757575757575"/>
      <point x="13" y="401" type="curve" smooth="yes"/>
      <point x="13.0" y="354.0"/>
      <point x="47" y="341.0"/>
    </contour>
  </outline>
</glyph>
<glyph name="dotaccentcmb" format="2">
  <unicode hex="0307"/>
  <anchor x="0" y="515" name="_top"/>
  <outline>
    <contour>
      <point x="18" y="584" type="curve" smooth="yes"/>
      <point x="82" y="584"/>
      <point x="106" y="628.5301204819"/>
      <point x="106" y="672" type="curve" smooth="yes"/>
      <point x="106" y="735"/>
      <point x="64.6306306306" y="813"/>
      <point x="-6" y="813" type="curve" smooth="yes"/>
      <point x="-70" y="813"/>
      <point x="-115" y="777"/>
      <point x="-115" y="711" type="curve" smooth="yes"/>
      <point x="-115" y="645.4180327869"/>
      <point x="-55" y="584"/>
    </contour>
  </outline>
</glyph>
<glyph name="commaturnedabovecmb" format="2">
  <unicode hex="0312"/>
  <anchor x="0" y="515" name="_top"/>
  <outline>
    <contour>
      <point x="-100" y="612"/>
      <point x="-57" y="576"/>
      <point x="9" y="576" type="curve" smooth="yes"/>
      <point x="58" y="576"/>
      <point x="80" y="605"/>
      <point x="80" y="642" type="curve" smooth="yes"/>
      <point x="80" y="671"/>
      <point x="71" y="702"/>
      <point x="97" y="763" type="curve" smooth="yes"/>
      <point x="107" y="787"/>
      <point x="110" y="802"/>
      <point x="110" y="816" type="curve" smooth="yes"/>
      <point x="110" y="843"/>
      <point x="92" y="858"/>
      <point x="55" y="858" type="curve" smooth="yes"/>
      <point x="16" y="858"/>
      <point x="-14" y="844"/>
      <point x="-43" y="812" type="curve" smooth="yes"/>
      <point x="-84" y="769"/>
      <point x="-100" y="719"/>
      <point x="-100" y="663" type="curve" smooth="yes"/>
    </contour>
  </outline>
</glyph>
<glyph name="A.alt2" format="2">
  <advance width="780"/>
  <anchor x="424" y="700" name="top"/>
  <anchor x="424" y="0" name="bottom"/>
  <anchor x="424" y="699" name="ring"/>
  <anchor x="702" y="0" name="ogonek"/>
  <outline>
    <contour>
      <point x="671" y="-11.0" type="curve" smooth="yes"/>
      <point x="719" y="-11.0"/>
      <point x="742.0" y="10.379310344827587"/>
      <point x="742" y="51" type="curve" smooth="yes"/>
      <point x="742.0" y="111.21290322580646"/>
      <point x="673.7839212348523" y="175.17634293649473"/>
      <point x="654" y="357" type="curve" smooth="yes"/>
      <point x="625" y="610"/>
      <point x="581" y="711"/>
      <point x="433" y="711" type="curve" smooth="yes"/>
      <point x="337.6302521008" y="711"/>
      <point x="250" y="642"/>
      <point x="199" y="543" type="curve"/>
      <point x="266" y="566" type="line"/>
      <point x="239" y="605"/>
      <point x="205" y="616"/>
      <point x="176" y="616" type="curve" smooth="yes"/>
      <point x="142" y="616"/>
      <point x="127" y="600"/>
      <point x="127" y="575" type="curve" smooth="yes"/>
      <point x="127" y="443.793911007"/>
      <point x="79" y="332"/>
      <point x="79" y="160" type="curve" smooth="yes"/>
      <point x="79.0" y="39"/>
      <point x="115" y="-8"/>
      <point x="184" y="-8" type="curve" smooth="yes"/>
      <point x="225" y="-8"/>
      <point x="244" y="10"/>
      <point x="249" y="57" type="curve" smooth="yes"/>
      <point x="285.8682880481" y="353.8867405978"/>
      <point x="367" y="538"/>
      <point x="425" y="538" type="curve" smooth="yes"/>
      <point x="443" y="538"/>
      <point x="451" y="530"/>
      <point x="470" y="362" type="curve" smooth="yes"/>
      <point x="482.3976292043" y="259.9579750108"/>
      <point x="506" y="121"/>
      <point x="557" y="54" type="curve" smooth="yes"/>
      <point x="592" y="6"/>
      <point x="625" y="-11"/>
    </contour>
    <contour>
      <point x="134" y="160" type="curve" smooth="yes"/>
      <point x="239" y="160"/>
      <point x="416" y="198"/>
      <point x="623" y="198" type="curve" smooth="yes"/>
      <point x="699.0" y="198.0"/>
      <point x="750" y="239"/>
      <point x="750.0" y="296" type="curve" smooth="yes"/>
      <point x="750.0" y="342"/>
      <point x="723" y="372.0"/>
      <point x="634" y="372" type="curve" smooth="yes"/>
      <point x="405" y="372"/>
      <point x="225" y="343"/>
      <point x="85" y="305" type="curve" smooth="yes"/>
      <point x="43.006442064736284" y="293.3847605710973"/>
      <point x="24" y="270"/>
      <point x="24" y="240" type="curve" smooth="yes"/>
      <point x="24" y="192"/>
      <point x="56.0" y="160.0"/>
    </contour>
  </outline>
</glyph>
<glyph name="B.alt3" format="2">
  <advance width="623"/>
  <anchor x="315" y="700" name="top"/>
  <anchor x="272" y="0" name="bottom"/>
  <outline>
    <contour>
      <point x="252.0" y="153.0"/>
      <point x="226.0" y="197.8494623655914"/>
      <point x="226" y="347" type="curve" smooth="yes"/>
      <point x="226" y="425"/>
      <point x="228" y="456"/>
      <point x="235" y="535" type="curve" smooth="yes"/>
      <point x="240" y="580"/>
      <point x="202" y="629"/>
      <point x="149" y="629" type="curve" smooth="yes"/>
      <point x="125" y="629"/>
      <point x="92" y="613"/>
      <point x="83" y="579" type="curve" smooth="yes"/>
      <point x="59" y="484"/>
      <point x="53" y="438"/>
      <point x="53" y="331" type="curve" smooth="yes"/>
      <point x="53.0" y="147.80058651026394"/>
      <point x="128.0" y="-18.0"/>
      <point x="255" y="-18" type="curve" smooth="yes"/>
      <point x="381.0" y="-18.0"/>
      <point x="561.0" y="47.17241379310346"/>
      <point x="561" y="222" type="curve" smooth="yes"/>
      <point x="561" y="289"/>
      <point x="513" y="362"/>
      <point x="370" y="378" type="curve"/>
      <point x="379" y="323" type="line"/>
      <point x="553" y="386"/>
      <point x="587" y="463"/>
      <point x="587" y="525" type="curve" smooth="yes"/>
      <point x="587" y="668"/>
      <point x="423" y="712"/>
      <point x="210" y="712" type="curve" smooth="yes"/>
      <point x="73" y="712"/>
      <point x="25" y="668"/>
      <point x="25" y="589" type="curve" smooth="yes"/>
      <point x="25" y="550"/>
      <point x="47" y="524"/>
      <point x="89" y="524" type="curve" smooth="yes"/>
      <point x="109" y="524"/>
      <point x="158" y="528"/>
      <point x="204" y="528" type="curve" smooth="yes"/>
      <point x="394" y="528"/>
      <point x="407" y="522"/>
      <point x="407" y="501" type="curve" smooth="yes"/>
      <point x="407" y="465"/>
      <point x="210" y="408"/>
      <point x="157" y="393" type="curve" smooth="yes"/>
      <point x="136" y="387"/>
      <point x="118" y="359"/>
      <point x="118" y="336" type="curve" smooth="yes"/>
      <point x="118" y="287"/>
      <point x="144" y="252"/>
      <point x="181" y="253" type="curve" smooth="yes"/>
      <point x="324" y="256"/>
      <point x="391" y="244"/>
      <point x="391" y="204" type="curve" smooth="yes"/>
      <point x="391.0" y="190.95348837209303"/>
      <point x="302.0" y="153.0"/>
      <point x="264" y="153" type="curve" smooth="yes"/>
    </contour>
  </outline>
</glyph>
<glyph name="F.alt2" format="2">
  <advance width="594"/>
  <anchor x="321.0" y="700" name="top"/>
  <anchor x="260.0" y="0" name="bottom"/>
  <outline>
    <contour>
      <point x="252" y="270" type="curve" smooth="yes"/>
      <point x="252" y="428"/>
      <point x="265" y="492"/>
      <point x="265" y="525" type="curve" smooth="yes"/>
      <point x="265" y="556"/>
      <point x="248" y="589"/>
      <point x="197" y="589" type="curve" smooth="yes"/>
      <point x="143" y="589"/>
      <point x="108" y="555"/>
      <point x="95" y="491" type="curve" smooth="yes"/>
      <point x="85" y="437"/>
      <point x="78" y="381"/>
      <point x="78" y="294" type="curve" smooth="yes"/>
      <point x="78" y="174"/>
      <point x="99" y="101"/>
      <point x="133" y="55" type="curve" smooth="yes"/>
      <point x="170" y="3"/>
      <point x="219" y="-13"/>
      <point x="251" y="-13" type="curve" smooth="yes"/>
      <point x="294" y="-13"/>
      <point x="314" y="13"/>
      <point x="314" y="46" type="curve" smooth="yes"/>
      <point x="314" y="111"/>
      <point x="252" y="122"/>
    </contour>
    <contour>
      <point x="481" y="536" type="curve" smooth="yes"/>
      <point x="537" y="536"/>
      <point x="559" y="561"/>
      <point x="559" y="601" type="curve" smooth="yes"/>
      <point x="559" y="662"/>
      <point x="496" y="708"/>
      <point x="426" y="708" type="curve" smooth="yes"/>
      <point x="305" y="708"/>
      <point x="176" y="685"/>
      <point x="71" y="657" type="curve" smooth="yes"/>
      <point x="34" y="647"/>
      <point x="16" y="625"/>
      <point x="16" y="594" type="curve" smooth="yes"/>
      <point x="16" y="543"/>
      <point x="52" y="490"/>
      <point x="147" y="490" type="curve" smooth="yes"/>
      <point x="189" y="490"/>
      <point x="294" y="536"/>
    </contour>
    <contour>
      <point x="200" y="181" type="curve" smooth="yes"/>
      <point x="252" y="195"/>
      <point x="365" y="212"/>
      <point x="449" y="218" type="curve" smooth="yes"/>
      <point x="502" y="222"/>
      <point x="553" y="255"/>
      <point x="553" y="319" type="curve" smooth="yes"/>
      <point x="553" y="362"/>
      <point x="534" y="387"/>
      <point x="477" y="387" type="curve" smooth="yes"/>
      <point x="368" y="387"/>
      <point x="262" y="372"/>
      <point x="186" y="354" type="curve" smooth="yes"/>
      <point x="148" y="344"/>
      <point x="107" y="293"/>
      <point x="107" y="250" type="curve" smooth="yes"/>
      <point x="107" y="204"/>
      <point x="137" y="165"/>
    </contour>
  </outline>
</glyph>
<glyph name="Germandbls.alt1" format="2">
  <advance width="714"/>
  <outline>
    <contour>
      <point x="347" y="708" type="curve" smooth="yes"/>
      <point x="123" y="708.0"/>
      <point x="41.0" y="612.0"/>
      <point x="41" y="466" type="curve" smooth="yes"/>
      <point x="41.0" y="363.0"/>
      <point x="63" y="311"/>
      <point x="63" y="135" type="curve" smooth="yes"/>
      <point x="63" y="28.0"/>
      <point x="95.0" y="-10"/>
      <point x="169" y="-10" type="curve" smooth="yes"/>
      <point x="231" y="-10"/>
      <point x="241.0" y="34"/>
      <point x="241" y="97" type="curve" smooth="yes"/>
      <point x="241.0" y="270.0"/>
      <point x="214.0" y="364.8095238095"/>
      <point x="214" y="466" type="curve" smooth="yes"/>
      <point x="214.0" y="515.4179104477612"/>
      <point x="259.0" y="543.0"/>
      <point x="348" y="543" type="curve" smooth="yes"/>
      <point x="431.0" y="543.0"/>
      <point x="466.4506986726391" y="527.9995492434587"/>
      <point x="499" y="507" type="curve"/>
      <point x="496" y="565" type="line"/>
      <point x="471" y="519"/>
      <point x="442" y="489"/>
      <point x="356" y="460" type="curve" smooth="yes"/>
      <point x="324" y="449"/>
      <point x="306" y="429"/>
      <point x="306" y="380" type="curve" smooth="yes"/>
      <point x="306.0" y="224.0"/>
      <point x="510.9258085790518" y="249.00900332489528"/>
      <point x="516" y="180" type="curve"/>
      <point x="495.46795210201975" y="165.06760152874165"/>
      <point x="470.4758107389686" y="161.0"/>
      <point x="425" y="161" type="curve" smooth="yes"/>
      <point x="379.29411764705884" y="161.0"/>
      <point x="368.0344827586207" y="169.0"/>
      <point x="341" y="169" type="curve" smooth="yes"/>
      <point x="302.7959183673469" y="169.0"/>
      <point x="289.0" y="147.8679245283019"/>
      <point x="289" y="113" type="curve" smooth="yes"/>
      <point x="289.0" y="44.67999999999999"/>
      <point x="334" y="-9"/>
      <point x="443" y="-9" type="curve" smooth="yes"/>
      <point x="593.0" y="-9.0"/>
      <point x="677" y="62"/>
      <point x="677.0" y="184" type="curve" smooth="yes"/>
      <point x="677.0" y="375.0"/>
      <point x="474.98858252321395" y="355.0659676436526"/>
      <point x="466" y="407" type="curve"/>
      <point x="438" y="354" type="line"/>
      <point x="573.2627009880784" y="394.29101731559786"/>
      <point x="653.0" y="472.0"/>
      <point x="653.0" y="556" type="curve" smooth="yes"/>
      <point x="653" y="657"/>
      <point x="516" y="708.0"/>
    </contour>
  </outline>
</glyph>
<glyph name="H.alt2" format="2">
  <advance width="715"/>
  <anchor x="360" y="700" name="top"/>
  <anchor x="360" y="0" name="bottom"/>
  <outline>
    <contour>
      <point x="191" y="-12" type="curve" smooth="yes"/>
      <point x="237" y="-12"/>
      <point x="266" y="13"/>
      <point x="266" y="56" type="curve" smooth="yes"/>
      <point x="266" y="189"/>
      <point x="251" y="383"/>
      <point x="251" y="580" type="curve" smooth="yes"/>
      <point x="251" y="670"/>
      <point x="207" y="709"/>
      <point x="146" y="709" type="curve" smooth="yes"/>
      <point x="88" y="709"/>
      <point x="62" y="681"/>
      <point x="62" y="612" type="curve" smooth="yes"/>
      <point x="62" y="558"/>
      <point x="91" y="259"/>
      <point x="81" y="119" type="curve" smooth="yes"/>
      <point x="76" y="43"/>
      <point x="128" y="-12"/>
    </contour>
    <contour>
      <point x="592" y="-10" type="curve" smooth="yes"/>
      <point x="633" y="-10"/>
      <point x="651" y="15"/>
      <point x="651" y="57" type="curve" smooth="yes"/>
      <point x="651" y="118"/>
      <point x="632" y="146"/>
      <point x="632" y="233" type="curve" smooth="yes"/>
      <point x="632" y="316"/>
      <point x="638" y="448"/>
      <point x="638" y="554" type="curve" smooth="yes"/>
      <point x="638" y="655"/>
      <point x="593" y="704"/>
      <point x="531" y="704" type="curve" smooth="yes"/>
      <point x="482" y="704"/>
      <point x="461" y="676"/>
      <point x="461" y="617" type="curve" smooth="yes"/>
      <point x="461" y="538"/>
      <point x="453" y="417"/>
      <point x="453" y="291" type="curve" smooth="yes"/>
      <point x="453" y="77"/>
      <point x="499" y="-10"/>
    </contour>
    <contour>
      <point x="196" y="236" type="curve" smooth="yes"/>
      <point x="257" y="236"/>
      <point x="356" y="266"/>
      <point x="628" y="266" type="curve" smooth="yes"/>
      <point x="659" y="266"/>
      <point x="677" y="289"/>
      <point x="677" y="324" type="curve" smooth="yes"/>
      <point x="677" y="382"/>
      <point x="618" y="429"/>
      <point x="515" y="429" type="curve" smooth="yes"/>
      <point x="365" y="429"/>
      <point x="210" y="427"/>
      <point x="67" y="383" type="curve" smooth="yes"/>
      <point x="39" y="375"/>
      <point x="33" y="359"/>
      <point x="33" y="334" type="curve" smooth="yes"/>
      <point x="33" y="283"/>
      <point x="70" y="236"/>
    </contour>
  </outline>
</glyph>
<glyph name="I.alt1" format="2">
  <advance width="621"/>
  <anchor x="316.0" y="700" name="top"/>
  <anchor x="316.0" y="0" name="bottom"/>
  <anchor x="526.0" y="16" name="ogonek"/>
  <outline>
    <contour>
      <point x="195" y="-11" type="curve" smooth="yes"/>
      <point x="236" y="-11"/>
      <point x="329" y="0"/>
      <point x="442" y="0" type="curve" smooth="yes"/>
      <point x="548" y="0"/>
      <point x="593" y="44"/>
      <point x="593" y="98" type="curve" smooth="yes"/>
      <point x="593" y="135"/>
      <point x="570" y="164"/>
      <point x="467" y="164" type="curve" smooth="yes"/>
      <point x="314" y="164"/>
      <point x="278" y="183"/>
      <point x="87" y="151" type="curve" smooth="yes"/>
      <point x="51" y="145"/>
      <point x="32" y="118"/>
      <point x="32" y="88" type="curve" smooth="yes"/>
      <point x="32" y="31"/>
      <point x="79" y="-11"/>
    </contour>
    <contour>
      <point x="134" y="513" type="curve" smooth="yes"/>
      <point x="191" y="513"/>
      <point x="271" y="531"/>
      <point x="441" y="531" type="curve" smooth="yes"/>
      <point x="513" y="531"/>
      <point x="578" y="573"/>
      <point x="578" y="635" type="curve" smooth="yes"/>
      <point x="578" y="696"/>
      <point x="550" y="710"/>
      <point x="458" y="710" type="curve" smooth="yes"/>
      <point x="372" y="710"/>
      <point x="251" y="701"/>
      <point x="116" y="682" type="curve" smooth="yes"/>
      <point x="65" y="675"/>
      <point x="28" y="647"/>
      <point x="28" y="602" type="curve" smooth="yes"/>
      <point x="28" y="554"/>
      <point x="55" y="513"/>
    </contour>
    <contour>
      <point x="319" y="120" type="curve" smooth="yes"/>
      <point x="360" y="120"/>
      <point x="383" y="143"/>
      <point x="383" y="189" type="curve" smooth="yes"/>
      <point x="383" y="327"/>
      <point x="400" y="437"/>
      <point x="400" y="495" type="curve" smooth="yes"/>
      <point x="400" y="545"/>
      <point x="351" y="585"/>
      <point x="292" y="585" type="curve" smooth="yes"/>
      <point x="241" y="585"/>
      <point x="225" y="558"/>
      <point x="225" y="504" type="curve" smooth="yes"/>
      <point x="225" y="422"/>
      <point x="210" y="310"/>
      <point x="210" y="197" type="curve" smooth="yes"/>
      <point x="210" y="150"/>
      <point x="253" y="120"/>
    </contour>
  </outline>
</glyph>
<glyph name="J.alt2" format="2">
  <advance width="648"/>
  <anchor x="340" y="700" name="top"/>
  <anchor x="310" y="0" name="bottom"/>
  <outline>
    <contour>
      <point x="294" y="-12" type="curve" smooth="yes"/>
      <point x="484" y="-12"/>
      <point x="585" y="68"/>
      <point x="585" y="246" type="curve" smooth="yes"/>
      <point x="585" y="336"/>
      <point x="546" y="502"/>
      <point x="513" y="591" type="curve" smooth="yes"/>
      <point x="489" y="656"/>
      <point x="448" y="674"/>
      <point x="373" y="676" type="curve" smooth="yes"/>
      <point x="339" y="676"/>
      <point x="311" y="644"/>
      <point x="325" y="607" type="curve" smooth="yes"/>
      <point x="364" y="514"/>
      <point x="407" y="356"/>
      <point x="407" y="272" type="curve" smooth="yes"/>
      <point x="407" y="195"/>
      <point x="379" y="161"/>
      <point x="294" y="161" type="curve" smooth="yes"/>
      <point x="220" y="161"/>
      <point x="200" y="183"/>
      <point x="200" y="204" type="curve" smooth="yes"/>
      <point x="200" y="234"/>
      <point x="226" y="258"/>
      <point x="226" y="289" type="curve" smooth="yes"/>
      <point x="226" y="316"/>
      <point x="209" y="330"/>
      <point x="176" y="330" type="curve" smooth="yes"/>
      <point x="71" y="330"/>
      <point x="31" y="232"/>
      <point x="31" y="171" type="curve" smooth="yes"/>
      <point x="31" y="57"/>
      <point x="138" y="-12"/>
    </contour>
    <contour>
      <point x="218" y="526" type="curve" smooth="yes"/>
      <point x="298" y="526"/>
      <point x="425" y="544"/>
      <point x="556" y="544" type="curve" smooth="yes"/>
      <point x="602" y="544"/>
      <point x="626" y="565"/>
      <point x="626" y="604" type="curve" smooth="yes"/>
      <point x="626" y="693"/>
      <point x="538" y="712"/>
      <point x="460" y="712" type="curve" smooth="yes"/>
      <point x="360" y="712"/>
      <point x="309" y="700"/>
      <point x="237" y="700" type="curve" smooth="yes"/>
      <point x="196" y="700"/>
      <point x="156" y="713"/>
      <point x="107" y="713" type="curve" smooth="yes"/>
      <point x="75" y="713"/>
      <point x="57" y="691"/>
      <point x="57" y="657" type="curve" smooth="yes"/>
      <point x="57" y="561"/>
      <point x="152" y="526"/>
    </contour>
  </outline>
</glyph>
<glyph name="K.alt1" format="2">
  <advance width="684"/>
  <anchor x="331" y="700" name="top"/>
  <anchor x="331" y="0" name="bottom"/>
  <outline>
    <contour>
      <point x="163" y="-12" type="curve" smooth="yes"/>
      <point x="210" y="-12.0"/>
      <point x="240.0" y="13"/>
      <point x="240" y="56" type="curve" smooth="yes"/>
      <point x="240.0" y="99"/>
      <point x="229.0" y="131"/>
      <point x="229" y="193" type="curve" smooth="yes"/>
      <point x="229" y="332"/>
      <point x="252" y="467"/>
      <point x="252" y="552" type="curve" smooth="yes"/>
      <point x="252.0" y="617"/>
      <point x="238" y="711.0"/>
      <point x="137" y="711" type="curve" smooth="yes"/>
      <point x="85.0" y="711.0"/>
      <point x="67.0" y="688"/>
      <point x="67" y="650" type="curve" smooth="yes"/>
      <point x="67.0" y="620"/>
      <point x="77.0" y="598"/>
      <point x="77" y="537" type="curve" smooth="yes"/>
      <point x="77.0" y="471"/>
      <point x="55.0" y="339"/>
      <point x="55" y="187" type="curve" smooth="yes"/>
      <point x="55.0" y="40"/>
      <point x="79" y="-12.0"/>
    </contour>
    <contour>
      <point x="613" y="-11" type="curve" smooth="yes"/>
      <point x="671.21875" y="-11"/>
      <point x="694" y="20.7352941176"/>
      <point x="694" y="72" type="curve" smooth="yes"/>
      <point x="694" y="119.6464646465"/>
      <point x="672" y="151"/>
      <point x="615" y="165" type="curve" smooth="yes"/>
      <point x="451" y="207"/>
      <point x="369" y="285.0248447205"/>
      <point x="369" y="317" type="curve" smooth="yes"/>
      <point x="369" y="364"/>
      <point x="461" y="471"/>
      <point x="548" y="523" type="curve" smooth="yes"/>
      <point x="603" y="555"/>
      <point x="614" y="578"/>
      <point x="614.0" y="617" type="curve" smooth="yes"/>
      <point x="614.0" y="688"/>
      <point x="581" y="713.0"/>
      <point x="530" y="713" type="curve" smooth="yes"/>
      <point x="508" y="713"/>
      <point x="480" y="703"/>
      <point x="450" y="682" type="curve" smooth="yes"/>
      <point x="323" y="588"/>
      <point x="209" y="424"/>
      <point x="209" y="292" type="curve" smooth="yes"/>
      <point x="209" y="102"/>
      <point x="500" y="-11"/>
    </contour>
  </outline>
</glyph>
<glyph name="L.alt2" format="2">
  <advance width="536"/>
  <anchor x="184" y="700" name="top"/>
  <anchor x="290" y="0" name="bottom"/>
  <outline>
    <contour>
      <point x="290" y="-9" type="curve" smooth="yes"/>
      <point x="353" y="-9"/>
      <point x="428" y="6"/>
      <point x="471" y="42" type="curve" smooth="yes"/>
      <point x="506" y="72"/>
      <point x="519" y="111"/>
      <point x="519" y="153" type="curve" smooth="yes"/>
      <point x="519" y="188"/>
      <point x="497" y="222"/>
      <point x="465" y="222" type="curve" smooth="yes"/>
      <point x="427" y="222"/>
      <point x="396" y="164"/>
      <point x="297" y="164" type="curve" smooth="yes"/>
      <point x="235" y="164"/>
      <point x="212" y="185"/>
      <point x="212" y="234" type="curve" smooth="yes"/>
      <point x="212" y="293"/>
      <point x="264" y="441"/>
      <point x="264" y="570" type="curve" smooth="yes"/>
      <point x="264" y="630"/>
      <point x="230" y="710"/>
      <point x="158" y="710" type="curve" smooth="yes"/>
      <point x="110" y="710"/>
      <point x="91" y="680"/>
      <point x="91" y="638" type="curve" smooth="yes"/>
      <point x="91" y="533"/>
      <point x="40" y="401"/>
      <point x="40" y="251" type="curve" smooth="yes"/>
      <point x="40" y="83"/>
      <point x="127" y="-9"/>
    </contour>
  </outline>
</glyph>
<glyph name="M.alt1" format="2">
  <advance width="1050"/>
  <anchor x="554" y="700" name="top"/>
  <anchor x="534" y="0" name="bottom"/>
  <outline>
    <contour>
      <point x="240" y="541" type="curve"/>
      <point x="185" y="519" type="line"/>
      <point x="229" y="628"/>
      <point x="296" y="709"/>
      <point x="372" y="709" type="curve" smooth="yes"/>
      <point x="442.1656050955414" y="709.0"/>
      <point x="488" y="661"/>
      <point x="518" y="490" type="curve" smooth="yes"/>
      <point x="544.0364507400874" y="342.79391312335184"/>
      <point x="539" y="295"/>
      <point x="565" y="203" type="curve"/>
      <point x="505" y="258" type="line"/>
      <point x="536" y="343"/>
      <point x="562.4700907058161" y="472.91763207996485"/>
      <point x="610" y="570" type="curve" smooth="yes"/>
      <point x="649" y="645"/>
      <point x="695" y="716"/>
      <point x="776" y="716" type="curve" smooth="yes"/>
      <point x="870" y="716"/>
      <point x="930" y="649"/>
      <point x="948" y="486" type="curve" smooth="yes"/>
      <point x="964" y="338"/>
      <point x="983" y="194"/>
      <point x="1019" y="104" type="curve" smooth="yes"/>
      <point x="1044" y="42"/>
      <point x="1020" y="-9"/>
      <point x="949" y="-9" type="curve" smooth="yes"/>
      <point x="894" y="-9"/>
      <point x="859" y="16"/>
      <point x="832" y="65" type="curve" smooth="yes"/>
      <point x="787" y="149"/>
      <point x="778" y="308"/>
      <point x="767" y="407" type="curve" smooth="yes"/>
      <point x="762" y="462"/>
      <point x="753" y="510"/>
      <point x="726" y="555" type="curve"/>
      <point x="791" y="528" type="line"/>
      <point x="724" y="449"/>
      <point x="700" y="279"/>
      <point x="613" y="51" type="curve" smooth="yes"/>
      <point x="596" y="5"/>
      <point x="573.0" y="-10.0"/>
      <point x="534" y="-10" type="curve" smooth="yes"/>
      <point x="495" y="-10"/>
      <point x="473" y="4"/>
      <point x="454" y="37" type="curve" smooth="yes"/>
      <point x="416" y="101"/>
      <point x="394" y="180"/>
      <point x="375" y="300" type="curve" smooth="yes"/>
      <point x="363.0" y="379"/>
      <point x="356" y="431"/>
      <point x="332" y="487" type="curve"/>
      <point x="353" y="485" type="line"/>
      <point x="272" y="361"/>
      <point x="251" y="226"/>
      <point x="240" y="67" type="curve" smooth="yes"/>
      <point x="236" y="9"/>
      <point x="208" y="-12"/>
      <point x="158" y="-12" type="curve" smooth="yes"/>
      <point x="59" y="-12"/>
      <point x="54" y="138"/>
      <point x="54" y="243" type="curve" smooth="yes"/>
      <point x="54" y="323"/>
      <point x="62" y="403"/>
      <point x="62" y="474" type="curve" smooth="yes"/>
      <point x="62" y="520"/>
      <point x="50" y="566"/>
      <point x="50" y="602" type="curve" smooth="yes"/>
      <point x="50" y="643"/>
      <point x="67" y="672"/>
      <point x="116" y="672" type="curve" smooth="yes"/>
      <point x="194" y="672"/>
      <point x="240" y="601"/>
    </contour>
  </outline>
</glyph>
<glyph name="O.alt3" format="2">
  <advance width="756"/>
  <anchor x="367" y="700" name="top"/>
  <anchor x="367" y="0" name="bottom"/>
  <anchor x="510" y="29" name="ogonek"/>
  <outline>
    <contour>
      <point x="335" y="481" type="curve" smooth="yes"/>
      <point x="241" y="407"/>
      <point x="215" y="363"/>
      <point x="215" y="290" type="curve" smooth="yes"/>
      <point x="215" y="204"/>
      <point x="279" y="164"/>
      <point x="362" y="164" type="curve" smooth="yes"/>
      <point x="458" y="164"/>
      <point x="541" y="224"/>
      <point x="541" y="300" type="curve" smooth="yes"/>
      <point x="541" y="401"/>
      <point x="460" y="538"/>
      <point x="376" y="538" type="curve" smooth="yes"/>
      <point x="367" y="538"/>
      <point x="364" y="528"/>
      <point x="364" y="514" type="curve" smooth="yes"/>
      <point x="364" y="484"/>
      <point x="347" y="469"/>
      <point x="329" y="469" type="curve" smooth="yes"/>
      <point x="275" y="469"/>
      <point x="220" y="515"/>
      <point x="220" y="606" type="curve" smooth="yes"/>
      <point x="220" y="661"/>
      <point x="274" y="711"/>
      <point x="369" y="711" type="curve" smooth="yes"/>
      <point x="559" y="711"/>
      <point x="711" y="493"/>
      <point x="711" y="300" type="curve" smooth="yes"/>
      <point x="711" y="131"/>
      <point x="545" y="-10"/>
      <point x="362" y="-10" type="curve" smooth="yes"/>
      <point x="190" y="-10"/>
      <point x="45" y="110"/>
      <point x="45" y="290" type="curve" smooth="yes"/>
      <point x="45" y="488"/>
      <point x="230" y="618"/>
      <point x="272" y="618" type="curve" smooth="yes"/>
      <point x="290" y="618"/>
      <point x="323" y="607"/>
      <point x="337" y="589" type="curve" smooth="yes"/>
      <point x="360" y="559"/>
      <point x="365" y="505"/>
    </contour>
  </outline>
</glyph>
<glyph name="P.alt2" format="2">
  <advance width="642"/>
  <anchor x="339" y="700" name="top"/>
  <anchor x="186" y="0" name="bottom"/>
  <outline>
    <contour>
      <point x="80" y="135" type="curve" smooth="yes"/>
      <point x="80" y="30"/>
      <point x="128" y="-10"/>
      <point x="186" y="-10" type="curve" smooth="yes"/>
      <point x="248" y="-10"/>
      <point x="258" y="34"/>
      <point x="258" y="97" type="curve" smooth="yes"/>
      <point x="258" y="270"/>
      <point x="214" y="364.8095238095"/>
      <point x="214" y="466" type="curve" smooth="yes"/>
      <point x="214" y="509"/>
      <point x="259" y="533"/>
      <point x="348" y="533" type="curve" smooth="yes"/>
      <point x="393" y="533"/>
      <point x="436" y="516"/>
      <point x="436" y="480" type="curve" smooth="yes"/>
      <point x="436" y="418"/>
      <point x="359" y="348"/>
      <point x="284" y="348" type="curve" smooth="yes"/>
      <point x="227" y="348"/>
      <point x="215" y="366"/>
      <point x="190" y="366" type="curve" smooth="yes"/>
      <point x="155" y="366"/>
      <point x="127" y="344"/>
      <point x="127" y="303" type="curve" smooth="yes"/>
      <point x="127" y="236"/>
      <point x="197" y="173"/>
      <point x="291" y="173" type="curve" smooth="yes"/>
      <point x="464" y="173"/>
      <point x="609" y="331"/>
      <point x="609" y="480" type="curve" smooth="yes"/>
      <point x="609" y="625"/>
      <point x="491" y="708"/>
      <point x="347" y="708" type="curve" smooth="yes"/>
      <point x="123" y="708"/>
      <point x="41" y="612"/>
      <point x="41" y="466" type="curve" smooth="yes"/>
      <point x="41" y="363"/>
      <point x="80" y="311"/>
    </contour>
  </outline>
</glyph>
<glyph name="R.alt2" format="2">
  <advance width="756"/>
  <anchor x="369" y="700" name="top"/>
  <anchor x="369" y="0" name="bottom"/>
  <outline>
    <contour>
      <point x="117" y="679.0" type="curve" smooth="yes"/>
      <point x="53" y="679.0"/>
      <point x="33" y="643"/>
      <point x="48" y="588" type="curve" smooth="yes"/>
      <point x="76" y="489"/>
      <point x="102" y="422"/>
      <point x="99" y="313" type="curve"/>
      <point x="64" y="240"/>
      <point x="48" y="175"/>
      <point x="48" y="126" type="curve" smooth="yes"/>
      <point x="48.0" y="35"/>
      <point x="100" y="-13"/>
      <point x="156" y="-13" type="curve" smooth="yes"/>
      <point x="207.0" y="-13.0"/>
      <point x="233" y="15.0"/>
      <point x="233.0" y="65" type="curve" smooth="yes"/>
      <point x="233.0" y="473.29787234042556"/>
      <point x="479" y="540"/>
      <point x="506" y="540.0" type="curve" smooth="yes"/>
      <point x="520.0" y="540.0"/>
      <point x="526.0" y="534.0"/>
      <point x="526.0" y="520" type="curve" smooth="yes"/>
      <point x="526" y="482"/>
      <point x="445.24178013139425" y="371.0493848779018"/>
      <point x="210" y="323" type="curve" smooth="yes"/>
      <point x="171" y="315"/>
      <point x="156" y="237"/>
      <point x="179" y="206" type="curve" smooth="yes"/>
      <point x="258.0" y="104.0"/>
      <point x="527.0" y="-12.0"/>
      <point x="621" y="-12.0" type="curve" smooth="yes"/>
      <point x="694.0" y="-12.0"/>
      <point x="734.0" y="21.72631578947368"/>
      <point x="734" y="77" type="curve" smooth="yes"/>
      <point x="734.0" y="110.86153846153846"/>
      <point x="715" y="130"/>
      <point x="646" y="146" type="curve" smooth="yes"/>
      <point x="570.0" y="165"/>
      <point x="484" y="193"/>
      <point x="403" y="233" type="curve"/>
      <point x="578" y="286"/>
      <point x="700" y="400"/>
      <point x="700" y="529" type="curve" smooth="yes"/>
      <point x="700" y="630"/>
      <point x="648" y="710"/>
      <point x="520" y="710" type="curve" smooth="yes"/>
      <point x="403" y="710"/>
      <point x="294" y="636"/>
      <point x="223" y="528" type="curve"/>
      <point x="253" y="524" type="line"/>
      <point x="227.36827019431" y="639.8554187217187"/>
      <point x="192" y="679"/>
    </contour>
  </outline>
</glyph>
<glyph name="S.alt3" format="2">
  <advance width="578"/>
  <anchor x="294" y="700" name="top"/>
  <anchor x="294" y="0" name="bottom"/>
  <outline>
    <contour>
      <point x="253" y="-9" type="curve" smooth="yes"/>
      <point x="450" y="-9"/>
      <point x="547" y="46"/>
      <point x="547" y="168" type="curve" smooth="yes"/>
      <point x="547" y="362"/>
      <point x="217" y="385"/>
      <point x="217" y="451" type="curve" smooth="yes"/>
      <point x="217" y="481"/>
      <point x="322" y="518"/>
      <point x="471" y="546" type="curve" smooth="yes"/>
      <point x="508.0" y="553.0"/>
      <point x="525" y="581"/>
      <point x="525" y="615" type="curve" smooth="yes"/>
      <point x="525" y="664"/>
      <point x="501" y="710"/>
      <point x="429" y="710" type="curve" smooth="yes"/>
      <point x="306" y="710"/>
      <point x="38" y="612"/>
      <point x="38" y="455" type="curve" smooth="yes"/>
      <point x="38" y="257"/>
      <point x="333" y="236"/>
      <point x="366" y="172" type="curve"/>
      <point x="322.58270238410796" y="161.38688280500415"/>
      <point x="297.64925373134326" y="158.0"/>
      <point x="237" y="158" type="curve" smooth="yes"/>
      <point x="159.18045112781954" y="158.0"/>
      <point x="140.50375939849624" y="185.0"/>
      <point x="99" y="185" type="curve" smooth="yes"/>
      <point x="65.0" y="185.0"/>
      <point x="51" y="163"/>
      <point x="51" y="129" type="curve" smooth="yes"/>
      <point x="51.0" y="54.0"/>
      <point x="120" y="-9"/>
    </contour>
  </outline>
</glyph>
<glyph name="T.alt3" format="2">
  <advance width="625"/>
  <anchor x="319" y="700" name="top"/>
  <anchor x="319" y="0" name="bottom"/>
  <outline>
    <contour>
      <point x="217" y="568" type="curve" smooth="yes"/>
      <point x="193" y="286"/>
      <point x="190" y="195"/>
      <point x="219" y="85" type="curve" smooth="yes"/>
      <point x="241.84071256926018" y="9.526341075488062"/>
      <point x="282.0" y="-13.0"/>
      <point x="327" y="-13.0" type="curve" smooth="yes"/>
      <point x="378.0" y="-13.0"/>
      <point x="402.0" y="6.0"/>
      <point x="402" y="61" type="curve" smooth="yes"/>
      <point x="402" y="130"/>
      <point x="372.380236833873" y="172.99737187972443"/>
      <point x="394" y="514" type="curve" smooth="yes"/>
      <point x="399" y="602"/>
      <point x="372" y="640"/>
      <point x="289" y="640" type="curve" smooth="yes"/>
      <point x="248" y="640"/>
      <point x="220" y="610"/>
    </contour>
    <contour>
      <point x="123" y="543" type="curve" smooth="yes"/>
      <point x="234" y="532"/>
      <point x="338" y="532"/>
      <point x="474" y="532" type="curve" smooth="yes"/>
      <point x="542" y="532"/>
      <point x="613" y="566"/>
      <point x="613" y="649" type="curve" smooth="yes"/>
      <point x="613" y="686"/>
      <point x="593" y="711"/>
      <point x="551" y="711" type="curve" smooth="yes"/>
      <point x="468" y="711"/>
      <point x="419" y="700"/>
      <point x="355" y="700" type="curve" smooth="yes"/>
      <point x="263" y="700"/>
      <point x="178" y="710"/>
      <point x="65" y="710" type="curve" smooth="yes"/>
      <point x="27" y="710"/>
      <point x="12" y="683"/>
      <point x="12" y="651" type="curve" smooth="yes"/>
      <point x="12" y="585"/>
      <point x="39" y="551"/>
    </contour>
  </outline>
</glyph>
<glyph name="Thorn.alt3" format="2">
  <advance width="649"/>
  <outline>
    <contour>
      <point x="163" y="-12" type="curve" smooth="yes"/>
      <point x="210" y="-12.0"/>
      <point x="240.0" y="13"/>
      <point x="240" y="56" type="curve" smooth="yes"/>
      <point x="240.0" y="99"/>
      <point x="229.0" y="131"/>
      <point x="229" y="193" type="curve" smooth="yes"/>
      <point x="229" y="332"/>
      <point x="252" y="467"/>
      <point x="252" y="552" type="curve" smooth="yes"/>
      <point x="252.0" y="617"/>
      <point x="238" y="711.0"/>
      <point x="137" y="711" type="curve" smooth="yes"/>
      <point x="85.0" y="711.0"/>
      <point x="67.0" y="686.6619718309859"/>
      <point x="67" y="647" type="curve" smooth="yes"/>
      <point x="67.0" y="615.141592920354"/>
      <point x="77.0" y="591.7787610619469"/>
      <point x="77" y="527" type="curve" smooth="yes"/>
      <point x="77.0" y="462.8857142857143"/>
      <point x="55.0" y="334.65714285714284"/>
      <point x="55" y="187" type="curve" smooth="yes"/>
      <point x="55.0" y="40"/>
      <point x="79" y="-12.0"/>
    </contour>
    <contour>
      <point x="278" y="413" type="curve" smooth="yes"/>
      <point x="300" y="438"/>
      <point x="322.0" y="446.0"/>
      <point x="358" y="446" type="curve" smooth="yes"/>
      <point x="403" y="446"/>
      <point x="446.0" y="431.24528301886795"/>
      <point x="446" y="400" type="curve" smooth="yes"/>
      <point x="446.0" y="352.09090909090907"/>
      <point x="369.0" y="298.0"/>
      <point x="294" y="298" type="curve" smooth="yes"/>
      <point x="237" y="298"/>
      <point x="225" y="316"/>
      <point x="200" y="316" type="curve" smooth="yes"/>
      <point x="165" y="316"/>
      <point x="137" y="294"/>
      <point x="137" y="253" type="curve" smooth="yes"/>
      <point x="137.0" y="186.0"/>
      <point x="207.0" y="123.0"/>
      <point x="301" y="123" type="curve" smooth="yes"/>
      <point x="474.0" y="123.0"/>
      <point x="619.0" y="265.56026058631926"/>
      <point x="619" y="400" type="curve" smooth="yes"/>
      <point x="619.0" y="540.5482456140351"/>
      <point x="501.0" y="621.0"/>
      <point x="357" y="621" type="curve" smooth="yes"/>
      <point x="264.0" y="621.0"/>
      <point x="212.2618045440654" y="587.9420022053712"/>
      <point x="175" y="523" type="curve" smooth="yes"/>
      <point x="136" y="455"/>
      <point x="176.0" y="394.0"/>
      <point x="225" y="394" type="curve" smooth="yes"/>
      <point x="255.68421052631578" y="394.0"/>
      <point x="266" y="400"/>
    </contour>
  </outline>
</glyph>
<glyph name="U.alt3" format="2">
  <advance width="689"/>
  <anchor x="354" y="700" name="top"/>
  <anchor x="354" y="0" name="bottom"/>
  <anchor x="482" y="11" name="ogonek"/>
  <outline>
    <contour>
      <point x="365" y="-13" type="curve" smooth="yes"/>
      <point x="557" y="-13"/>
      <point x="643" y="114"/>
      <point x="643" y="298" type="curve" smooth="yes"/>
      <point x="643" y="382"/>
      <point x="634" y="448"/>
      <point x="634" y="520" type="curve" smooth="yes"/>
      <point x="634" y="578"/>
      <point x="643" y="605"/>
      <point x="643" y="638" type="curve" smooth="yes"/>
      <point x="643" y="687"/>
      <point x="612" y="712"/>
      <point x="562" y="712" type="curve" smooth="yes"/>
      <point x="490.37735849056605" y="712.0"/>
      <point x="458.0" y="655"/>
      <point x="458" y="574" type="curve" smooth="yes"/>
      <point x="458.0" y="472"/>
      <point x="464.0" y="412.6"/>
      <point x="464" y="305" type="curve" smooth="yes"/>
      <point x="464" y="198"/>
      <point x="428" y="165"/>
      <point x="358" y="165" type="curve" smooth="yes"/>
      <point x="279" y="165"/>
      <point x="244" y="194"/>
      <point x="244" y="332" type="curve" smooth="yes"/>
      <point x="244" y="395"/>
      <point x="253" y="483"/>
      <point x="253" y="544" type="curve" smooth="yes"/>
      <point x="253" y="680"/>
      <point x="201" y="716"/>
      <point x="133" y="716" type="curve" smooth="yes"/>
      <point x="80.28571428571428" y="716.0"/>
      <point x="51.0" y="695.7142857142857"/>
      <point x="51" y="645" type="curve" smooth="yes"/>
      <point x="51.0" y="595.3125"/>
      <point x="65.0" y="583.3875"/>
      <point x="65" y="486" type="curve" smooth="yes"/>
      <point x="65.0" y="449.7551020408163"/>
      <point x="60" y="396"/>
      <point x="60" y="342" type="curve" smooth="yes"/>
      <point x="60" y="122.0"/>
      <point x="142.0" y="-13"/>
    </contour>
  </outline>
</glyph>
<glyph name="V.alt3" format="2">
  <advance width="714"/>
  <anchor x="360.0" y="700" name="top"/>
  <anchor x="360.0" y="0" name="bottom"/>
  <outline>
    <contour>
      <point x="367" y="-12" type="curve" smooth="yes"/>
      <point x="424" y="-12"/>
      <point x="444" y="17"/>
      <point x="460" y="70" type="curve" smooth="yes"/>
      <point x="517" y="244"/>
      <point x="583" y="358"/>
      <point x="662" y="487" type="curve" smooth="yes"/>
      <point x="697" y="545"/>
      <point x="702" y="555"/>
      <point x="702" y="606" type="curve" smooth="yes"/>
      <point x="702" y="666"/>
      <point x="670" y="715"/>
      <point x="617" y="715" type="curve" smooth="yes"/>
      <point x="586" y="715"/>
      <point x="561" y="709"/>
      <point x="512" y="633" type="curve" smooth="yes"/>
      <point x="429" y="504"/>
      <point x="361" y="366"/>
      <point x="317" y="198" type="curve"/>
      <point x="363" y="257" type="line"/>
      <point x="307" y="337"/>
      <point x="276" y="563"/>
      <point x="184" y="669" type="curve" smooth="yes"/>
      <point x="154" y="703"/>
      <point x="128" y="712"/>
      <point x="97" y="712" type="curve" smooth="yes"/>
      <point x="38" y="712"/>
      <point x="12" y="671"/>
      <point x="12" y="629" type="curve" smooth="yes"/>
      <point x="12" y="586"/>
      <point x="37" y="554"/>
      <point x="58" y="524" type="curve" smooth="yes"/>
      <point x="132" y="417"/>
      <point x="115" y="315"/>
      <point x="239" y="89" type="curve" smooth="yes"/>
      <point x="279" y="15"/>
      <point x="307" y="-12"/>
    </contour>
  </outline>
</glyph>
<glyph name="W.alt2" format="2">
  <advance width="1005"/>
  <anchor x="517" y="700" name="top"/>
  <anchor x="517" y="0" name="bottom"/>
  <outline>
    <contour>
      <point x="230" y="599" type="curve" smooth="yes"/>
      <point x="226.35925157787688" y="659.6791403687185"/>
      <point x="190.21897810218974" y="712.0"/>
      <point x="121" y="712" type="curve" smooth="yes"/>
      <point x="54.64406779661017" y="712.0"/>
      <point x="30.991842026311282" y="676.1223696053307"/>
      <point x="34" y="631" type="curve" smooth="yes"/>
      <point x="46" y="450"/>
      <point x="96" y="255"/>
      <point x="163" y="84" type="curve" smooth="yes"/>
      <point x="195" y="3"/>
      <point x="236" y="-8"/>
      <point x="263" y="-8" type="curve" smooth="yes"/>
      <point x="306" y="-8"/>
      <point x="327" y="13"/>
      <point x="341" y="59" type="curve" smooth="yes"/>
      <point x="392" y="222"/>
      <point x="448" y="352"/>
      <point x="524" y="441" type="curve"/>
      <point x="466" y="460" type="line"/>
      <point x="530" y="375"/>
      <point x="563" y="166"/>
      <point x="648" y="59" type="curve" smooth="yes"/>
      <point x="687" y="10"/>
      <point x="719" y="-12"/>
      <point x="772" y="-12" type="curve" smooth="yes"/>
      <point x="797" y="-12"/>
      <point x="823" y="-1"/>
      <point x="841" y="42" type="curve" smooth="yes"/>
      <point x="902" y="193"/>
      <point x="920" y="415"/>
      <point x="960" y="559" type="curve" smooth="yes"/>
      <point x="981" y="634"/>
      <point x="965.0" y="712.0"/>
      <point x="875" y="712.0" type="curve" smooth="yes"/>
      <point x="831" y="712"/>
      <point x="803" y="692"/>
      <point x="784" y="645" type="curve" smooth="yes"/>
      <point x="752.0" y="570"/>
      <point x="743" y="367"/>
      <point x="701" y="242" type="curve"/>
      <point x="764" y="245" type="line"/>
      <point x="698" y="336"/>
      <point x="678.0" y="498.0"/>
      <point x="636" y="578" type="curve" smooth="yes"/>
      <point x="605" y="635"/>
      <point x="578" y="655"/>
      <point x="539.0" y="655.0" type="curve" smooth="yes"/>
      <point x="481" y="655"/>
      <point x="443" y="630"/>
      <point x="408" y="590" type="curve" smooth="yes"/>
      <point x="336" y="509"/>
      <point x="281" y="407"/>
      <point x="244" y="280" type="curve"/>
      <point x="281" y="294" type="line"/>
      <point x="248.92708496320924" y="405.31188159827377"/>
      <point x="238.44880024153514" y="475.0842631241514"/>
    </contour>
  </outline>
</glyph>
<glyph name="Y.alt2" format="2">
  <advance width="626"/>
  <anchor x="300" y="700" name="top"/>
  <anchor x="242" y="0" name="bottom"/>
  <outline>
    <contour>
      <point x="563" y="523" type="curve" smooth="yes"/>
      <point x="418" y="398"/>
      <point x="331.50636375974676" y="213.7512126832909"/>
      <point x="296" y="52" type="curve" smooth="yes"/>
      <point x="284.1690178246394" y="0.37389596206281084"/>
      <point x="263.8918918918919" y="-16.0"/>
      <point x="224" y="-16" type="curve" smooth="yes"/>
      <point x="159.0684931506849" y="-16.0"/>
      <point x="127.51437614501367" y="44.54331461595147"/>
      <point x="145" y="133" type="curve" smooth="yes"/>
      <point x="175.7973813112118" y="294.93461786217824"/>
      <point x="309.1911477722351" y="551.3655111267234"/>
      <point x="477" y="683" type="curve" smooth="yes"/>
      <point x="506" y="706"/>
      <point x="523.3142857142857" y="713.0"/>
      <point x="545" y="713.0" type="curve" smooth="yes"/>
      <point x="588.5230769230769" y="713.0"/>
      <point x="614.0" y="679.0"/>
      <point x="614" y="625" type="curve" smooth="yes"/>
      <point x="614.0" y="588.2087912087912"/>
      <point x="603" y="561"/>
    </contour>
    <contour>
      <point x="165" y="661" type="curve" smooth="yes"/>
      <point x="236" y="535"/>
      <point x="276" y="531"/>
      <point x="354" y="379" type="curve" smooth="yes"/>
      <point x="379.72780739337566" y="328.5734975089837"/>
      <point x="352.88461538461536" y="242.0"/>
      <point x="296" y="242" type="curve" smooth="yes"/>
      <point x="270" y="242"/>
      <point x="250" y="253"/>
      <point x="238" y="274" type="curve" smooth="yes"/>
      <point x="144.2130988136659" y="429.9716943642295"/>
      <point x="112.85761051090935" y="439.8175370228371"/>
      <point x="46" y="532" type="curve" smooth="yes"/>
      <point x="26.656378940961538" y="559.0810694826539"/>
      <point x="14.0" y="586.15"/>
      <point x="14" y="627" type="curve" smooth="yes"/>
      <point x="14.0" y="676.2209302325582"/>
      <point x="41.594202898550726" y="710.0"/>
      <point x="82" y="710.0" type="curve" smooth="yes"/>
      <point x="112.0875" y="710.0"/>
      <point x="140.83989388049207" y="703.521786770334"/>
    </contour>
  </outline>
</glyph>
<glyph name="a.alt2" format="2">
  <advance width="704"/>
  <anchor x="338" y="515" name="top"/>
  <anchor x="347" y="0" name="bottom"/>
  <anchor x="622" y="0" name="ogonek"/>
  <outline>
    <contour>
      <point x="362" y="392" type="curve" smooth="yes"/>
      <point x="339" y="238"/>
      <point x="276" y="158"/>
      <point x="214" y="158" type="curve" smooth="yes"/>
      <point x="182" y="158"/>
      <point x="160" y="164"/>
      <point x="127" y="187" type="curve"/>
      <point x="201" y="73" type="line"/>
      <point x="194" y="95"/>
      <point x="192" y="108"/>
      <point x="192" y="127" type="curve" smooth="yes"/>
      <point x="192" y="242"/>
      <point x="281" y="358"/>
      <point x="405" y="381" type="curve" smooth="yes"/>
      <point x="422" y="385"/>
      <point x="437" y="397"/>
      <point x="437" y="420" type="curve" smooth="yes"/>
      <point x="437" y="488"/>
      <point x="393" y="526"/>
      <point x="337" y="526" type="curve" smooth="yes"/>
      <point x="186" y="526"/>
      <point x="25" y="318"/>
      <point x="25" y="143" type="curve" smooth="yes"/>
      <point x="25" y="51"/>
      <point x="99" y="-10"/>
      <point x="207" y="-10" type="curve" smooth="yes"/>
      <point x="315" y="-10"/>
      <point x="423" y="52"/>
      <point x="483" y="255" type="curve"/>
      <point x="423" y="249" type="line"/>
      <point x="462" y="141"/>
      <point x="493" y="87"/>
      <point x="551" y="16" type="curve" smooth="yes"/>
      <point x="561" y="4"/>
      <point x="577" y="-7"/>
      <point x="602" y="-7" type="curve" smooth="yes"/>
      <point x="678" y="-7"/>
      <point x="716" y="105"/>
      <point x="677" y="147" type="curve" smooth="yes"/>
      <point x="606" y="223"/>
      <point x="590" y="285"/>
      <point x="550" y="372" type="curve" smooth="yes"/>
      <point x="533" y="413"/>
      <point x="489" y="446"/>
      <point x="432" y="446" type="curve" smooth="yes"/>
      <point x="399" y="446"/>
      <point x="367" y="426"/>
    </contour>
  </outline>
</glyph>
<glyph name="acutecomb.alt3" format="2">
  <anchor x="0" y="515" name="_top"/>
  <outline>
    <contour>
      <point x="146.9024390244" y="840"/>
      <point x="178" y="811"/>
      <point x="178" y="753" type="curve" smooth="yes"/>
      <point x="178" y="656"/>
      <point x="86.5405405405" y="575"/>
      <point x="-10" y="575" type="curve" smooth="yes"/>
      <point x="-56" y="575"/>
      <point x="-79" y="596"/>
      <point x="-79" y="627" type="curve" smooth="yes"/>
      <point x="-79" y="650"/>
      <point x="-69.4394074322" y="666.5605925678"/>
      <point x="-49" y="687" type="curve" smooth="yes"/>
      <point x="-21" y="715"/>
      <point x="-9" y="739"/>
      <point x="5" y="779" type="curve" smooth="yes"/>
      <point x="23" y="826"/>
      <point x="51" y="840"/>
      <point x="93" y="840" type="curve" smooth="yes"/>
    </contour>
  </outline>
</glyph>
<glyph name="at.alt2" format="2">
  <advance width="924"/>
  <outline>
    <contour>
      <point x="550" y="297" type="curve" smooth="yes"/>
      <point x="493" y="278"/>
      <point x="454" y="240"/>
      <point x="454" y="206" type="curve" smooth="yes"/>
      <point x="454" y="188"/>
      <point x="461" y="172"/>
      <point x="475" y="160" type="curve"/>
      <point x="353" y="259" type="line"/>
      <point x="376" y="245"/>
      <point x="393" y="242"/>
      <point x="411" y="242" type="curve" smooth="yes"/>
      <point x="427" y="242"/>
      <point x="435" y="255"/>
      <point x="459" y="283" type="curve" smooth="yes"/>
      <point x="489" y="320"/>
      <point x="523" y="345"/>
      <point x="575" y="345" type="curve" smooth="yes"/>
      <point x="610" y="345"/>
      <point x="641" y="332"/>
      <point x="663" y="300" type="curve" smooth="yes"/>
      <point x="694" y="254"/>
      <point x="704" y="254"/>
      <point x="712" y="254" type="curve"/>
      <point x="717" y="254"/>
      <point x="720" y="262"/>
      <point x="720" y="268" type="curve" smooth="yes"/>
      <point x="720" y="373"/>
      <point x="635" y="543"/>
      <point x="515" y="543" type="curve" smooth="yes"/>
      <point x="354" y="543"/>
      <point x="204" y="397"/>
      <point x="204" y="248" type="curve" smooth="yes"/>
      <point x="204" y="79"/>
      <point x="358" y="-5"/>
      <point x="515" y="-5" type="curve" smooth="yes"/>
      <point x="662" y="-5"/>
      <point x="708" y="35"/>
      <point x="769" y="35" type="curve" smooth="yes"/>
      <point x="813" y="35"/>
      <point x="836" y="18"/>
      <point x="836" y="-24" type="curve" smooth="yes"/>
      <point x="836" y="-70"/>
      <point x="804" y="-115"/>
      <point x="755" y="-135" type="curve" smooth="yes"/>
      <point x="694" y="-162"/>
      <point x="627" y="-174"/>
      <point x="515" y="-174" type="curve" smooth="yes"/>
      <point x="254" y="-174"/>
      <point x="35" y="-13"/>
      <point x="35" y="248" type="curve" smooth="yes"/>
      <point x="35" y="477"/>
      <point x="262" y="713"/>
      <point x="515" y="713" type="curve" smooth="yes"/>
      <point x="761" y="713"/>
      <point x="889" y="425"/>
      <point x="889" y="268" type="curve" smooth="yes"/>
      <point x="889" y="147"/>
      <point x="817" y="85"/>
      <point x="733" y="85" type="curve" smooth="yes"/>
      <point x="692" y="85"/>
      <point x="639" y="92"/>
      <point x="600" y="133" type="curve" smooth="yes"/>
      <point x="566" y="169"/>
      <point x="548" y="183"/>
      <point x="509" y="191" type="curve"/>
      <point x="592" y="201" type="line"/>
      <point x="559" y="132"/>
      <point x="511" y="92"/>
      <point x="433" y="92" type="curve" smooth="yes"/>
      <point x="358" y="92"/>
      <point x="300" y="138"/>
      <point x="300" y="228" type="curve" smooth="yes"/>
      <point x="300" y="343"/>
      <point x="416" y="451"/>
      <point x="493" y="451" type="curve" smooth="yes"/>
      <point x="556" y="451"/>
      <point x="600" y="421"/>
      <point x="600" y="370" type="curve" smooth="yes"/>
      <point x="600" y="335"/>
      <point x="568" y="303"/>
    </contour>
  </outline>
</glyph>
<glyph name="b.alt3" format="2">
  <advance width="635"/>
  <anchor x="135" y="800" name="top"/>
  <anchor x="312" y="0" name="bottom"/>
  <outline>
    <contour>
      <point x="222" y="693" type="curve" smooth="yes"/>
      <point x="222" y="647"/>
      <point x="205" y="565"/>
      <point x="205" y="480" type="curve" smooth="yes"/>
      <point x="205" y="428"/>
      <point x="202" y="396"/>
      <point x="209" y="346" type="curve" smooth="yes"/>
      <point x="213" y="318"/>
      <point x="152" y="351"/>
      <point x="168" y="387" type="curve" smooth="yes"/>
      <point x="196" y="449"/>
      <point x="283" y="527"/>
      <point x="386" y="527" type="curve" smooth="yes"/>
      <point x="501" y="527"/>
      <point x="597" y="461"/>
      <point x="597" y="305" type="curve" smooth="yes"/>
      <point x="597" y="121"/>
      <point x="410" y="-10"/>
      <point x="220" y="-10" type="curve" smooth="yes"/>
      <point x="135" y="-10"/>
      <point x="34" y="20"/>
      <point x="34" y="105" type="curve" smooth="yes"/>
      <point x="34" y="150"/>
      <point x="68" y="171"/>
      <point x="118" y="171" type="curve" smooth="yes"/>
      <point x="143" y="171"/>
      <point x="176" y="163"/>
      <point x="208" y="163" type="curve" smooth="yes"/>
      <point x="287" y="163"/>
      <point x="420" y="206"/>
      <point x="420" y="314" type="curve" smooth="yes"/>
      <point x="420" y="339"/>
      <point x="411" y="353"/>
      <point x="383" y="353" type="curve" smooth="yes"/>
      <point x="290" y="353"/>
      <point x="227" y="273"/>
      <point x="203" y="158" type="curve" smooth="yes"/>
      <point x="197" y="129"/>
      <point x="180" y="110"/>
      <point x="151" y="110" type="curve" smooth="yes"/>
      <point x="113" y="110"/>
      <point x="76" y="139"/>
      <point x="67" y="190" type="curve" smooth="yes"/>
      <point x="49" y="292"/>
      <point x="38" y="402"/>
      <point x="38" y="464" type="curve" smooth="yes"/>
      <point x="38" y="608"/>
      <point x="59" y="666"/>
      <point x="52" y="740" type="curve" smooth="yes"/>
      <point x="48" y="780"/>
      <point x="62" y="811"/>
      <point x="113" y="811" type="curve" smooth="yes"/>
      <point x="181" y="811"/>
      <point x="222" y="774"/>
    </contour>
  </outline>
</glyph>
<glyph name="backslash.alt3" format="2">
  <advance width="455"/>
  <outline>
    <contour>
      <point x="249" y="691" type="curve" smooth="yes"/>
      <point x="263" y="417"/>
      <point x="317" y="159"/>
      <point x="449" y="-130" type="curve" smooth="yes"/>
      <point x="485" y="-209"/>
      <point x="433" y="-264"/>
      <point x="370" y="-264" type="curve" smooth="yes"/>
      <point x="332" y="-264"/>
      <point x="298" y="-238"/>
      <point x="280" y="-196" type="curve" smooth="yes"/>
      <point x="155" y="95"/>
      <point x="69" y="468"/>
      <point x="60" y="678" type="curve" smooth="yes"/>
      <point x="56" y="767"/>
      <point x="83" y="813"/>
      <point x="146" y="813" type="curve" smooth="yes"/>
      <point x="203" y="813"/>
      <point x="245" y="770"/>
    </contour>
  </outline>
</glyph>
<glyph name="braceleft.alt3" format="2">
  <advance width="553"/>
  <outline>
    <contour>
      <point x="448" y="638" type="curve" smooth="yes"/>
      <point x="346" y="624"/>
      <point x="321" y="609"/>
      <point x="321" y="575" type="curve" smooth="yes"/>
      <point x="321" y="522"/>
      <point x="377" y="488"/>
      <point x="377" y="387" type="curve" smooth="yes"/>
      <point x="377" y="312"/>
      <point x="269" y="221"/>
      <point x="136" y="199" type="curve"/>
      <point x="135" y="279" type="line"/>
      <point x="346" y="264"/>
      <point x="392" y="196"/>
      <point x="392" y="116" type="curve" smooth="yes"/>
      <point x="392" y="51"/>
      <point x="354" y="3"/>
      <point x="354" y="-38" type="curve" smooth="yes"/>
      <point x="354" y="-69.2307692308"/>
      <point x="391" y="-88"/>
      <point x="477" y="-94" type="curve" smooth="yes"/>
      <point x="510.9854068299" y="-95.9991415782"/>
      <point x="535" y="-116"/>
      <point x="535" y="-159" type="curve" smooth="yes"/>
      <point x="535" y="-216"/>
      <point x="488" y="-264"/>
      <point x="422" y="-264" type="curve" smooth="yes"/>
      <point x="294" y="-264"/>
      <point x="174" y="-169"/>
      <point x="174" y="-74" type="curve" smooth="yes"/>
      <point x="174" y="13"/>
      <point x="216" y="42"/>
      <point x="216" y="87" type="curve" smooth="yes"/>
      <point x="216" y="121"/>
      <point x="197" y="133"/>
      <point x="82" y="151" type="curve" smooth="yes"/>
      <point x="34.8072951975" y="158.0287007153"/>
      <point x="10" y="194.8095238095"/>
      <point x="10" y="251" type="curve" smooth="yes"/>
      <point x="10" y="276.9047619048"/>
      <point x="23.5367939997" y="305.1789313332"/>
      <point x="65" y="319" type="curve" smooth="yes"/>
      <point x="170" y="353"/>
      <point x="201" y="383"/>
      <point x="201" y="401" type="curve" smooth="yes"/>
      <point x="201" y="467"/>
      <point x="145" y="513"/>
      <point x="145" y="593" type="curve" smooth="yes"/>
      <point x="145" y="694"/>
      <point x="251" y="812"/>
      <point x="420" y="812" type="curve" smooth="yes"/>
      <point x="479" y="812"/>
      <point x="522" y="766"/>
      <point x="522" y="719" type="curve" smooth="yes"/>
      <point x="522" y="671"/>
      <point x="495" y="644"/>
    </contour>
  </outline>
</glyph>
<glyph name="braceright.alt3" format="2">
  <advance width="553"/>
  <outline>
    <contour>
      <point x="132" y="-87" type="curve" smooth="yes"/>
      <point x="208.8358208955" y="-87"/>
      <point x="236" y="-73"/>
      <point x="236" y="-35" type="curve" smooth="yes"/>
      <point x="236" y="20"/>
      <point x="174" y="55"/>
      <point x="174" y="140" type="curve" smooth="yes"/>
      <point x="174" y="223"/>
      <point x="273" y="303"/>
      <point x="425" y="329" type="curve"/>
      <point x="426" y="247" type="line"/>
      <point x="243" y="259"/>
      <point x="165" y="345"/>
      <point x="165" y="419" type="curve" smooth="yes"/>
      <point x="165" y="490"/>
      <point x="217" y="532"/>
      <point x="217" y="578" type="curve" smooth="yes"/>
      <point x="217" y="608.3384615385"/>
      <point x="201.1749872093" y="625.9663486136"/>
      <point x="97" y="646" type="curve" smooth="yes"/>
      <point x="50.0496400581" y="654.990494457"/>
      <point x="24" y="695.4545454545"/>
      <point x="24" y="742" type="curve" smooth="yes"/>
      <point x="24" y="795"/>
      <point x="62" y="814"/>
      <point x="126" y="814" type="curve" smooth="yes"/>
      <point x="275" y="814"/>
      <point x="393" y="720"/>
      <point x="393" y="592" type="curve" smooth="yes"/>
      <point x="393" y="524"/>
      <point x="341" y="490"/>
      <point x="341" y="432" type="curve" smooth="yes"/>
      <point x="341" y="402"/>
      <point x="360" y="393"/>
      <point x="475" y="372" type="curve" smooth="yes"/>
      <point x="517" y="364"/>
      <point x="538" y="319.5862068966"/>
      <point x="538" y="277" type="curve" smooth="yes"/>
      <point x="538" y="248.2"/>
      <point x="527" y="211"/>
      <point x="495" y="205" type="curve" smooth="yes"/>
      <point x="373" y="182"/>
      <point x="350" y="172"/>
      <point x="350" y="129" type="curve" smooth="yes"/>
      <point x="350" y="81"/>
      <point x="412" y="26"/>
      <point x="412" y="-51" type="curve" smooth="yes"/>
      <point x="412" y="-179"/>
      <point x="333.5306859206" y="-263"/>
      <point x="165" y="-263" type="curve" smooth="yes"/>
      <point x="99" y="-263"/>
      <point x="44" y="-213"/>
      <point x="44" y="-152" type="curve" smooth="yes"/>
      <point x="44" y="-107"/>
      <point x="69" y="-87"/>
    </contour>
  </outline>
</glyph>
<glyph name="e.alt1" format="2">
  <advance width="611"/>
  <anchor x="309" y="515" name="top"/>
  <anchor x="309" y="0" name="bottom"/>
  <anchor x="505" y="41" name="ogonek"/>
  <outline>
    <contour>
      <point x="276" y="186" type="curve" smooth="yes"/>
      <point x="416" y="186"/>
      <point x="535" y="234"/>
      <point x="535" y="349" type="curve" smooth="yes"/>
      <point x="535" y="464"/>
      <point x="452" y="525"/>
      <point x="332" y="525" type="curve" smooth="yes"/>
      <point x="150" y="525"/>
      <point x="34" y="357"/>
      <point x="34" y="210" type="curve" smooth="yes"/>
      <point x="34" y="82"/>
      <point x="114" y="-10"/>
      <point x="298" y="-10" type="curve" smooth="yes"/>
      <point x="472" y="-10"/>
      <point x="582" y="69"/>
      <point x="582" y="145" type="curve" smooth="yes"/>
      <point x="582" y="181"/>
      <point x="568" y="199"/>
      <point x="539" y="199" type="curve" smooth="yes"/>
      <point x="484" y="199"/>
      <point x="441" y="146"/>
      <point x="281" y="146" type="curve" smooth="yes"/>
      <point x="222" y="146"/>
      <point x="203" y="158"/>
      <point x="203" y="187" type="curve" smooth="yes"/>
      <point x="203" y="271"/>
      <point x="267" y="355"/>
      <point x="356" y="355" type="curve" smooth="yes"/>
      <point x="370" y="355"/>
      <point x="376" y="349"/>
      <point x="376" y="338" type="curve" smooth="yes"/>
      <point x="376" y="307"/>
      <point x="305" y="281"/>
      <point x="257" y="281" type="curve" smooth="yes"/>
      <point x="225" y="281"/>
      <point x="207" y="286"/>
      <point x="193" y="286" type="curve" smooth="yes"/>
      <point x="172" y="286"/>
      <point x="163" y="276"/>
      <point x="163" y="256" type="curve" smooth="yes"/>
      <point x="163" y="219"/>
      <point x="206" y="186"/>
    </contour>
  </outline>
</glyph>
<glyph name="eth.alt3" format="2">
  <advance width="634"/>
  <outline>
    <contour>
      <point x="160" y="638" type="curve" smooth="yes"/>
      <point x="297" y="506"/>
      <point x="401" y="345"/>
      <point x="401" y="244" type="curve" smooth="yes"/>
      <point x="401" y="175"/>
      <point x="364" y="154"/>
      <point x="311" y="154" type="curve" smooth="yes"/>
      <point x="250.0" y="154.0"/>
      <point x="212.0" y="188.47761194029852"/>
      <point x="212" y="231" type="curve" smooth="yes"/>
      <point x="212.0" y="258.84375"/>
      <point x="228.0" y="285.0"/>
      <point x="274" y="285" type="curve" smooth="yes"/>
      <point x="320" y="285"/>
      <point x="331" y="264"/>
      <point x="355" y="264" type="curve" smooth="yes"/>
      <point x="397.0" y="264.0"/>
      <point x="411.0" y="284.0"/>
      <point x="411" y="310" type="curve" smooth="yes"/>
      <point x="411.0" y="353.0"/>
      <point x="343.0" y="434.0"/>
      <point x="229" y="434" type="curve" smooth="yes"/>
      <point x="111.0" y="434.0"/>
      <point x="37.0" y="342.3835616438356"/>
      <point x="37" y="225" type="curve" smooth="yes"/>
      <point x="37.0" y="87.13333333333333"/>
      <point x="144.0" y="-10.0"/>
      <point x="315" y="-10" type="curve" smooth="yes"/>
      <point x="497" y="-10"/>
      <point x="581" y="91"/>
      <point x="581" y="239" type="curve" smooth="yes"/>
      <point x="581" y="384"/>
      <point x="481" y="567"/>
      <point x="299" y="748" type="curve" smooth="yes"/>
      <point x="235.31224133581276" y="810.2066479975782"/>
      <point x="210.7852386031734" y="808.0"/>
      <point x="180" y="808" type="curve" smooth="yes"/>
      <point x="133" y="808"/>
      <point x="101" y="780"/>
      <point x="101" y="732" type="curve" smooth="yes"/>
      <point x="101" y="704"/>
      <point x="110" y="685"/>
    </contour>
    <contour>
      <point x="171" y="479" type="curve" smooth="yes"/>
      <point x="291" y="526"/>
      <point x="374.0" y="551.0"/>
      <point x="523" y="556" type="curve" smooth="yes"/>
      <point x="553" y="557"/>
      <point x="567.0" y="574"/>
      <point x="567" y="604" type="curve" smooth="yes"/>
      <point x="567.0" y="651"/>
      <point x="525" y="683.0"/>
      <point x="459" y="683" type="curve" smooth="yes"/>
      <point x="359.0" y="683.0"/>
      <point x="260" y="662"/>
      <point x="171" y="632" type="curve" smooth="yes"/>
      <point x="93" y="605"/>
      <point x="69.0" y="571"/>
      <point x="69" y="525" type="curve" smooth="yes"/>
      <point x="69.0" y="481"/>
      <point x="107.0" y="454.0"/>
    </contour>
  </outline>
</glyph>
<glyph name="exclam.alt2" format="2">
  <advance width="309"/>
  <outline>
    <contour>
      <point x="235" y="600" type="curve" smooth="yes"/>
      <point x="235" y="568"/>
      <point x="230" y="531"/>
      <point x="230" y="487" type="curve" smooth="yes"/>
      <point x="230" y="425"/>
      <point x="236" y="361"/>
      <point x="236" y="322" type="curve" smooth="yes"/>
      <point x="236" y="264"/>
      <point x="209" y="236"/>
      <point x="166" y="236" type="curve" smooth="yes"/>
      <point x="119" y="236"/>
      <point x="88" y="256"/>
      <point x="78" y="302" type="curve" smooth="yes"/>
      <point x="67" y="358"/>
      <point x="63.0" y="397.04761904761904"/>
      <point x="63" y="461" type="curve" smooth="yes"/>
      <point x="63" y="513"/>
      <point x="70" y="571"/>
      <point x="68" y="639" type="curve" smooth="yes"/>
      <point x="66" y="684"/>
      <point x="81.96153846153845" y="718.0"/>
      <point x="134" y="718" type="curve" smooth="yes"/>
      <point x="196.35652173913044" y="718.0"/>
      <point x="235.0" y="684.0"/>
    </contour>
    <contour>
      <point x="172" y="-13" type="curve" smooth="yes"/>
      <point x="229" y="-13"/>
      <point x="259" y="14"/>
      <point x="259" y="57" type="curve" smooth="yes"/>
      <point x="259" y="112"/>
      <point x="221" y="165"/>
      <point x="139" y="165" type="curve" smooth="yes"/>
      <point x="86" y="165"/>
      <point x="50" y="136"/>
      <point x="50" y="76" type="curve" smooth="yes"/>
      <point x="50" y="19"/>
      <point x="96" y="-13"/>
    </contour>
  </outline>
</glyph>
<glyph name="four.alt2" format="2">
  <advance width="700"/>
  <outline>
    <contour>
      <point x="327" y="157" type="curve" smooth="yes"/>
      <point x="327" y="314.6883116883"/>
      <point x="372" y="461"/>
      <point x="372" y="559" type="curve" smooth="yes"/>
      <point x="372" y="574"/>
      <point x="369" y="586"/>
      <point x="358" y="610" type="curve"/>
      <point x="411" y="553" type="line"/>
      <point x="316" y="494"/>
      <point x="234" y="391"/>
      <point x="180" y="269" type="curve"/>
      <point x="127" y="339" type="line"/>
      <point x="160" y="326"/>
      <point x="168" y="323"/>
      <point x="193" y="323" type="curve" smooth="yes"/>
      <point x="322.15" y="323"/>
      <point x="428.75" y="367"/>
      <point x="603" y="367" type="curve" smooth="yes"/>
      <point x="652" y="367"/>
      <point x="692" y="315"/>
      <point x="692" y="259" type="curve" smooth="yes"/>
      <point x="692" y="221"/>
      <point x="674" y="192"/>
      <point x="629" y="192" type="curve" smooth="yes"/>
      <point x="418.7700205339" y="192"/>
      <point x="298.3470225873" y="147"/>
      <point x="132" y="147" type="curve" smooth="yes"/>
      <point x="61" y="147"/>
      <point x="15" y="204"/>
      <point x="15" y="252" type="curve" smooth="yes"/>
      <point x="15" y="300.935483871"/>
      <point x="22.7022043817" y="355.8376479795"/>
      <point x="73" y="437" type="curve" smooth="yes"/>
      <point x="182" y="614"/>
      <point x="341" y="715"/>
      <point x="415" y="715" type="curve" smooth="yes"/>
      <point x="508" y="715"/>
      <point x="551" y="643"/>
      <point x="551" y="581" type="curve" smooth="yes"/>
      <point x="551" y="427"/>
      <point x="502" y="311.8096385542"/>
      <point x="502" y="148" type="curve" smooth="yes"/>
      <point x="502" y="100"/>
      <point x="512" y="79"/>
      <point x="512" y="53" type="curve" smooth="yes"/>
      <point x="512" y="13"/>
      <point x="476" y="-11"/>
      <point x="422" y="-11" type="curve" smooth="yes"/>
      <point x="354" y="-11"/>
      <point x="327" y="39"/>
    </contour>
  </outline>
</glyph>
<glyph name="grave.alt2" format="2">
  <advance width="350"/>
  <outline>
    <contour>
      <point x="38" y="810"/>
      <point x="-15" y="747"/>
      <point x="21" y="667" type="curve" smooth="yes"/>
      <point x="50" y="602"/>
      <point x="110" y="541"/>
      <point x="161" y="510" type="curve" smooth="yes"/>
      <point x="196" y="489"/>
      <point x="233" y="477"/>
      <point x="265" y="477" type="curve" smooth="yes"/>
      <point x="340" y="477"/>
      <point x="360" y="552"/>
      <point x="300" y="607" type="curve" smooth="yes"/>
      <point x="258" y="645"/>
      <point x="225" y="686"/>
      <point x="202" y="749" type="curve" smooth="yes"/>
      <point x="185" y="796"/>
      <point x="147" y="810"/>
      <point x="103" y="810" type="curve" smooth="yes"/>
    </contour>
  </outline>
</glyph>
<glyph name="gravecomb.alt3" format="2">
  <anchor x="0" y="515" name="_top"/>
  <outline>
    <contour>
      <point x="43" y="585"/>
      <point x="70" y="609"/>
      <point x="70" y="647" type="curve" smooth="yes"/>
      <point x="70" y="699"/>
      <point x="18.252172539" y="700.2095989454"/>
      <point x="-7" y="769" type="curve" smooth="yes"/>
      <point x="-23" y="813"/>
      <point x="-53" y="829"/>
      <point x="-90" y="829" type="curve" smooth="yes"/>
      <point x="-155.5813953488" y="829"/>
      <point x="-184" y="794"/>
      <point x="-184" y="740" type="curve" smooth="yes"/>
      <point x="-184" y="668"/>
      <point x="-89" y="585"/>
      <point x="-11" y="585" type="curve" smooth="yes"/>
    </contour>
  </outline>
</glyph>
<glyph name="idotless.alt2" format="2">
  <advance width="314"/>
  <anchor x="162.0" y="515" name="top"/>
  <anchor x="162.0" y="0" name="bottom"/>
  <anchor x="216.0" y="0" name="ogonek"/>
  <outline>
    <contour>
      <point x="182" y="-10" type="curve" smooth="yes"/>
      <point x="224" y="-10"/>
      <point x="246" y="17"/>
      <point x="246" y="62" type="curve" smooth="yes"/>
      <point x="246" y="131"/>
      <point x="259" y="351"/>
      <point x="258" y="415" type="curve" smooth="yes"/>
      <point x="257" y="488"/>
      <point x="219" y="526"/>
      <point x="173" y="526" type="curve" smooth="yes"/>
      <point x="118" y="526"/>
      <point x="56" y="460"/>
      <point x="56" y="386" type="curve" smooth="yes"/>
      <point x="56" y="305"/>
      <point x="65" y="258"/>
      <point x="65" y="98" type="curve" smooth="yes"/>
      <point x="65" y="41"/>
      <point x="117" y="-10"/>
    </contour>
  </outline>
</glyph>
<glyph name="jdotless.alt2" format="2">
  <advance width="300"/>
  <anchor x="134.0" y="515" name="top"/>
  <outline>
    <contour>
      <point x="210" y="442" type="curve" smooth="yes"/>
      <point x="244" y="262"/>
      <point x="263.0" y="103.83794466403162"/>
      <point x="263" y="-40" type="curve" smooth="yes"/>
      <point x="263.0" y="-185.0"/>
      <point x="191.9396984924623" y="-260.0"/>
      <point x="84" y="-260" type="curve" smooth="yes"/>
      <point x="9.216494845360828" y="-260.0"/>
      <point x="-33.0" y="-210.78947368421055"/>
      <point x="-33" y="-150" type="curve" smooth="yes"/>
      <point x="-33.0" y="-108.44262295081967"/>
      <point x="-13.0" y="-85.0"/>
      <point x="16" y="-85" type="curve" smooth="yes"/>
      <point x="30.759999999999994" y="-85.0"/>
      <point x="39.0625" y="-88.0"/>
      <point x="57" y="-88" type="curve" smooth="yes"/>
      <point x="80.2" y="-88.0"/>
      <point x="93.0" y="-64.20967741935485"/>
      <point x="93" y="-29" type="curve" smooth="yes"/>
      <point x="93.0" y="182.47196261682242"/>
      <point x="40.0" y="265.0467289719626"/>
      <point x="40" y="402" type="curve" smooth="yes"/>
      <point x="40.0" y="490.0"/>
      <point x="85.01075268817203" y="524.0"/>
      <point x="131" y="524" type="curve" smooth="yes"/>
      <point x="174.0909090909091" y="524.0"/>
      <point x="195.9841481774794" y="508.0747300204543"/>
    </contour>
  </outline>
</glyph>
<glyph name="k.alt2" format="2">
  <advance width="678"/>
  <anchor x="162" y="800" name="top"/>
  <anchor x="332" y="0" name="bottom"/>
  <outline>
    <contour>
      <point x="555" y="-7" type="curve" smooth="yes"/>
      <point x="602" y="-7"/>
      <point x="627" y="21"/>
      <point x="627" y="65" type="curve" smooth="yes"/>
      <point x="627" y="114"/>
      <point x="601" y="166"/>
      <point x="533" y="180" type="curve" smooth="yes"/>
      <point x="405" y="211"/>
      <point x="363" y="233"/>
      <point x="363" y="249" type="curve" smooth="yes"/>
      <point x="363" y="270"/>
      <point x="433" y="322"/>
      <point x="545" y="355" type="curve" smooth="yes"/>
      <point x="612" y="375"/>
      <point x="629" y="396"/>
      <point x="629" y="432" type="curve" smooth="yes"/>
      <point x="629" y="493"/>
      <point x="591" y="527"/>
      <point x="533" y="527" type="curve" smooth="yes"/>
      <point x="422" y="527"/>
      <point x="172" y="376"/>
      <point x="172" y="229" type="curve" smooth="yes"/>
      <point x="172" y="138"/>
      <point x="414" y="-7"/>
    </contour>
    <contour>
      <point x="139" y="810" type="curve" smooth="yes"/>
      <point x="94" y="810"/>
      <point x="73" y="786"/>
      <point x="73" y="741" type="curve" smooth="yes"/>
      <point x="73" y="705"/>
      <point x="82" y="674"/>
      <point x="82" y="594" type="curve" smooth="yes"/>
      <point x="82" y="405"/>
      <point x="55" y="223"/>
      <point x="55" y="137" type="curve" smooth="yes"/>
      <point x="55" y="19"/>
      <point x="110" y="-10"/>
      <point x="164" y="-10" type="curve" smooth="yes"/>
      <point x="206" y="-10"/>
      <point x="229" y="9"/>
      <point x="229" y="53" type="curve" smooth="yes"/>
      <point x="229" y="102"/>
      <point x="224" y="145"/>
      <point x="224" y="209" type="curve" smooth="yes"/>
      <point x="224" y="325"/>
      <point x="261" y="452"/>
      <point x="261" y="596" type="curve" smooth="yes"/>
      <point x="261" y="752"/>
      <point x="221" y="810"/>
    </contour>
  </outline>
</glyph>
<glyph name="l.alt1" format="2">
  <advance width="373"/>
  <anchor x="164" y="800" name="top"/>
  <anchor x="233" y="0" name="bottom"/>
  <outline>
    <contour>
      <point x="251" y="675" type="curve" smooth="yes"/>
      <point x="251" y="592"/>
      <point x="229" y="496"/>
      <point x="229" y="347" type="curve" smooth="yes"/>
      <point x="229.0" y="169.0327868852459"/>
      <point x="249.45454545454547" y="163.0"/>
      <point x="274" y="163" type="curve" smooth="yes"/>
      <point x="293.55555555555554" y="163.0"/>
      <point x="304.8" y="168.0"/>
      <point x="318" y="168" type="curve" smooth="yes"/>
      <point x="352" y="168"/>
      <point x="363" y="138"/>
      <point x="363" y="97" type="curve" smooth="yes"/>
      <point x="363.0" y="29.86486486486487"/>
      <point x="308.4074074074074" y="-11.0"/>
      <point x="231" y="-11" type="curve" smooth="yes"/>
      <point x="166" y="-11"/>
      <point x="52" y="26"/>
      <point x="52" y="367" type="curve" smooth="yes"/>
      <point x="52" y="513"/>
      <point x="62" y="631"/>
      <point x="83" y="746" type="curve" smooth="yes"/>
      <point x="91" y="791"/>
      <point x="114" y="810"/>
      <point x="157" y="810" type="curve" smooth="yes"/>
      <point x="217" y="810"/>
      <point x="251" y="770"/>
    </contour>
  </outline>
</glyph>
<glyph name="m.alt1" format="2">
  <advance width="962"/>
  <anchor x="508" y="515" name="top"/>
  <anchor x="482" y="0" name="bottom"/>
  <outline>
    <contour>
      <point x="218" y="401" type="curve" smooth="yes"/>
      <point x="218.0" y="291.0"/>
      <point x="157.24813778035093" y="317.71782715030093"/>
      <point x="185" y="398" type="curve" smooth="yes"/>
      <point x="208.9688877924471" y="465.91184874526687"/>
      <point x="268.01176470588234" y="526.0"/>
      <point x="353" y="526" type="curve" smooth="yes"/>
      <point x="435.1788617886179" y="526.0"/>
      <point x="464.8714757612496" y="482.48349594577536"/>
      <point x="486" y="403" type="curve" smooth="yes"/>
      <point x="500.0" y="349.0"/>
      <point x="505.0" y="300.0"/>
      <point x="506" y="269" type="curve" smooth="yes"/>
      <point x="509" y="192"/>
      <point x="448" y="194"/>
      <point x="468" y="280" type="curve" smooth="yes"/>
      <point x="505.9065288104405" y="442.5990577921525"/>
      <point x="594.8878923766815" y="526.0"/>
      <point x="684" y="526" type="curve" smooth="yes"/>
      <point x="810" y="526"/>
      <point x="864" y="440"/>
      <point x="879" y="275" type="curve" smooth="yes"/>
      <point x="894" y="114"/>
      <point x="935.0" y="104.3119266055046"/>
      <point x="935" y="55" type="curve" smooth="yes"/>
      <point x="935.0" y="23.524590163934427"/>
      <point x="910.4492753623189" y="-9.0"/>
      <point x="858" y="-9" type="curve" smooth="yes"/>
      <point x="777.5033112582781" y="-9.0"/>
      <point x="731.9707990106201" y="25.221583978235714"/>
      <point x="715" y="154" type="curve" smooth="yes"/>
      <point x="697" y="292"/>
      <point x="688" y="321"/>
      <point x="667" y="366" type="curve" smooth="yes"/>
      <point x="642.0426870586913" y="419.16992757061405"/>
      <point x="775.3447366424834" y="411.5831023179679"/>
      <point x="704" y="349" type="curve" smooth="yes"/>
      <point x="635" y="289"/>
      <point x="601.0" y="183.0"/>
      <point x="565" y="50" type="curve" smooth="yes"/>
      <point x="556" y="11"/>
      <point x="527" y="-9"/>
      <point x="488" y="-9" type="curve" smooth="yes"/>
      <point x="405" y="-9.0"/>
      <point x="374" y="41"/>
      <point x="361" y="152" type="curve" smooth="yes"/>
      <point x="346.0" y="277.0"/>
      <point x="336.0" y="327.0"/>
      <point x="305" y="369" type="curve" smooth="yes"/>
      <point x="286.54155015767316" y="393.9189072871413"/>
      <point x="365.0153487690365" y="364.3802603751282"/>
      <point x="342" y="334" type="curve" smooth="yes"/>
      <point x="273" y="247"/>
      <point x="256" y="152"/>
      <point x="244" y="42" type="curve" smooth="yes"/>
      <point x="240" y="9"/>
      <point x="218" y="-9"/>
      <point x="172" y="-9" type="curve" smooth="yes"/>
      <point x="79" y="-9"/>
      <point x="52" y="90"/>
      <point x="52" y="190" type="curve" smooth="yes"/>
      <point x="52.0" y="247.47938144329896"/>
      <point x="62.0" y="310.2445652173913"/>
      <point x="62" y="367" type="curve" smooth="yes"/>
      <point x="62" y="395"/>
      <point x="57" y="420"/>
      <point x="57" y="444" type="curve" smooth="yes"/>
      <point x="57.0" y="470.6590909090909"/>
      <point x="76.0" y="495.0"/>
      <point x="114" y="495" type="curve" smooth="yes"/>
      <point x="187.89473684210526" y="495.0"/>
      <point x="218.0" y="434.0"/>
    </contour>
  </outline>
</glyph>
<glyph name="n.alt1" format="2">
  <advance width="692"/>
  <anchor x="348" y="515" name="top"/>
  <anchor x="348" y="0" name="bottom"/>
  <outline>
    <contour>
      <point x="586" y="-10" type="curve" smooth="yes"/>
      <point x="625" y="-10"/>
      <point x="668" y="29"/>
      <point x="668" y="83" type="curve" smooth="yes"/>
      <point x="668" y="108"/>
      <point x="661" y="125"/>
      <point x="643" y="140" type="curve" smooth="yes"/>
      <point x="602" y="174"/>
      <point x="595" y="239"/>
      <point x="595" y="370" type="curve" smooth="yes"/>
      <point x="595" y="456"/>
      <point x="534" y="524"/>
      <point x="440" y="524" type="curve" smooth="yes"/>
      <point x="342" y="524"/>
      <point x="235" y="441"/>
      <point x="168" y="252" type="curve"/>
      <point x="218" y="186" type="line"/>
      <point x="218" y="325"/>
      <point x="245" y="341"/>
      <point x="245" y="412" type="curve" smooth="yes"/>
      <point x="245" y="477"/>
      <point x="183" y="511"/>
      <point x="142" y="511" type="curve" smooth="yes"/>
      <point x="105" y="511"/>
      <point x="85" y="490"/>
      <point x="85" y="461" type="curve" smooth="yes"/>
      <point x="85" y="338"/>
      <point x="56" y="286"/>
      <point x="56" y="151" type="curve" smooth="yes"/>
      <point x="56" y="58"/>
      <point x="86" y="-9"/>
      <point x="155" y="-9.0" type="curve" smooth="yes"/>
      <point x="196" y="-9.0"/>
      <point x="217" y="6"/>
      <point x="233" y="59" type="curve" smooth="yes"/>
      <point x="283" y="227"/>
      <point x="375" y="357"/>
      <point x="426" y="357" type="curve" smooth="yes"/>
      <point x="444" y="357"/>
      <point x="457" y="346"/>
      <point x="484" y="317" type="curve"/>
      <point x="489" y="374"/>
      <point x="458" y="376"/>
      <point x="405" y="379" type="curve"/>
      <point x="438" y="364"/>
      <point x="439" y="341"/>
      <point x="439" y="299" type="curve" smooth="yes"/>
      <point x="439" y="95"/>
      <point x="494" y="-10"/>
    </contour>
  </outline>
</glyph>
<glyph name="o.alt2" format="2">
  <advance width="664"/>
  <anchor x="346" y="515" name="top"/>
  <anchor x="346" y="0" name="bottom"/>
  <anchor x="502" y="37" name="ogonek"/>
  <outline>
    <contour>
      <point x="347" y="-12" type="curve" smooth="yes"/>
      <point x="506" y="-12"/>
      <point x="627" y="108"/>
      <point x="627" y="266" type="curve" smooth="yes"/>
      <point x="627" y="420"/>
      <point x="523" y="516"/>
      <point x="343" y="516" type="curve" smooth="yes"/>
      <point x="258" y="516"/>
      <point x="163" y="428"/>
      <point x="163" y="345" type="curve" smooth="yes"/>
      <point x="163" y="285"/>
      <point x="188" y="269"/>
      <point x="213" y="269" type="curve" smooth="yes"/>
      <point x="245" y="269"/>
      <point x="262" y="279"/>
      <point x="290" y="307" type="curve" smooth="yes"/>
      <point x="315" y="332"/>
      <point x="329" y="347"/>
      <point x="355" y="347" type="curve" smooth="yes"/>
      <point x="415" y="347"/>
      <point x="457" y="312"/>
      <point x="457" y="258" type="curve" smooth="yes"/>
      <point x="457" y="196"/>
      <point x="409" y="154"/>
      <point x="342" y="154" type="curve" smooth="yes"/>
      <point x="260" y="154"/>
      <point x="208" y="196"/>
      <point x="208" y="259" type="curve" smooth="yes"/>
      <point x="208" y="298"/>
      <point x="250" y="336"/>
      <point x="289" y="348" type="curve" smooth="yes"/>
      <point x="357" y="369"/>
      <point x="374" y="412"/>
      <point x="374" y="466" type="curve" smooth="yes"/>
      <point x="374" y="511"/>
      <point x="336" y="529"/>
      <point x="297" y="529" type="curve" smooth="yes"/>
      <point x="171" y="529"/>
      <point x="37" y="395"/>
      <point x="37" y="266" type="curve" smooth="yes"/>
      <point x="37" y="104"/>
      <point x="167" y="-12"/>
    </contour>
  </outline>
</glyph>
<glyph name="ogonekcmb.alt1" format="2">
  <guideline x="26" y="-177" angle="48.1449574647" identifier="4uLH7EeGYo"/>
  <anchor x="76" y="0" name="_ogonek"/>
  <outline>
    <contour>
      <point x="-133" y="-126" type="curve" smooth="yes"/>
      <point x="-133" y="-205"/>
      <point x="-73.2681564246" y="-260"/>
      <point x="29" y="-260" type="curve" smooth="yes"/>
      <point x="93.2752293578" y="-260"/>
      <point x="142" y="-228.7755102041"/>
      <point x="142" y="-158" type="curve" smooth="yes"/>
      <point x="142" y="-127"/>
      <point x="129" y="-98"/>
      <point x="83" y="-98" type="curve" smooth="yes"/>
      <point x="43" y="-98"/>
      <point x="31" y="-86"/>
      <point x="31" y="-66" type="curve" smooth="yes"/>
      <point x="31" y="-42"/>
      <point x="42" y="-27"/>
      <point x="76" y="0" type="curve"/>
      <point x="76" y="32"/>
      <point x="49" y="43"/>
      <point x="25" y="43" type="curve" smooth="yes"/>
      <point x="-64.7283950617" y="43"/>
      <point x="-133" y="-35"/>
    </contour>
  </outline>
</glyph>
<glyph name="p.alt2" format="2">
  <advance width="610"/>
  <anchor x="299" y="515" name="top"/>
  <anchor x="153" y="-250" name="bottom"/>
  <outline>
    <contour>
      <point x="211" y="358" type="curve" smooth="yes"/>
      <point x="211" y="207"/>
      <point x="257" y="92"/>
      <point x="257" y="-46" type="curve" smooth="yes"/>
      <point x="257" y="-144"/>
      <point x="250" y="-261"/>
      <point x="157" y="-261" type="curve" smooth="yes"/>
      <point x="114" y="-261"/>
      <point x="63" y="-226"/>
      <point x="63" y="-151" type="curve" smooth="yes"/>
      <point x="63" y="-88"/>
      <point x="75" y="-64"/>
      <point x="75" y="2" type="curve" smooth="yes"/>
      <point x="75" y="153"/>
      <point x="36" y="266"/>
      <point x="25" y="406" type="curve" smooth="yes"/>
      <point x="23" y="435"/>
      <point x="46" y="456"/>
      <point x="80" y="456" type="curve" smooth="yes"/>
      <point x="145" y="456"/>
      <point x="211" y="411"/>
    </contour>
    <contour>
      <point x="233" y="528" type="curve" smooth="yes"/>
      <point x="422" y="528"/>
      <point x="584" y="411"/>
      <point x="584" y="200" type="curve" smooth="yes"/>
      <point x="584" y="103"/>
      <point x="494" y="-10"/>
      <point x="342" y="-10" type="curve" smooth="yes"/>
      <point x="219" y="-10"/>
      <point x="126" y="69"/>
      <point x="126" y="161" type="curve" smooth="yes"/>
      <point x="126" y="186"/>
      <point x="150" y="212"/>
      <point x="174" y="212" type="curve" smooth="yes"/>
      <point x="219" y="212"/>
      <point x="250" y="159"/>
      <point x="313" y="159" type="curve" smooth="yes"/>
      <point x="366" y="159"/>
      <point x="402" y="178"/>
      <point x="402" y="227" type="curve" smooth="yes"/>
      <point x="402" y="310"/>
      <point x="298" y="353"/>
      <point x="226" y="353" type="curve" smooth="yes"/>
      <point x="213" y="353"/>
      <point x="205" y="348"/>
      <point x="178" y="348" type="curve" smooth="yes"/>
      <point x="133" y="348"/>
      <point x="84" y="388"/>
      <point x="84" y="437" type="curve" smooth="yes"/>
      <point x="84" y="509"/>
      <point x="135" y="528"/>
    </contour>
  </outline>
</glyph>
<glyph name="parenleft.case" format="2">
  <advance width="409"/>
  <guideline x="0" y="780" angle="0" identifier="OPq3PRbF7B"/>
  <guideline x="0" y="-80" angle="0" identifier="7iVuVyAaby"/>
  <outline>
    <contour>
      <point x="349" y="623" type="curve" smooth="yes"/>
      <point x="270" y="530"/>
      <point x="225" y="421"/>
      <point x="225" y="282" type="curve" smooth="yes"/>
      <point x="225.0" y="175.67924528301884"/>
      <point x="260.2898919149857" y="112.8737567466998"/>
      <point x="322" y="86" type="curve" smooth="yes"/>
      <point x="367.65274607819424" y="66.72439610031799"/>
      <point x="381.0" y="48.861538461538466"/>
      <point x="381" y="15" type="curve" smooth="yes"/>
      <point x="381.0" y="-44"/>
      <point x="341" y="-80.0"/>
      <point x="296" y="-80" type="curve" smooth="yes"/>
      <point x="272" y="-80.0"/>
      <point x="253" y="-76"/>
      <point x="215" y="-56" type="curve" smooth="yes"/>
      <point x="115" y="-6"/>
      <point x="49.0" y="87.0"/>
      <point x="49" y="282" type="curve" smooth="yes"/>
      <point x="49" y="466"/>
      <point x="109" y="609"/>
      <point x="212" y="736" type="curve" smooth="yes"/>
      <point x="236" y="766"/>
      <point x="260" y="780"/>
      <point x="293" y="780" type="curve" smooth="yes"/>
      <point x="338.0" y="780.0"/>
      <point x="384.0" y="736.5274725274726"/>
      <point x="384" y="694" type="curve" smooth="yes"/>
      <point x="384.0" y="672.4848484848485"/>
      <point x="375.13433867617306" y="654.3612064114077"/>
    </contour>
  </outline>
</glyph>
<glyph name="period.alt2" format="2">
  <advance width="329"/>
  <outline>
    <contour>
      <point x="187" y="-16" type="curve" smooth="yes"/>
      <point x="251" y="-16"/>
      <point x="284" y="18"/>
      <point x="284.0" y="65" type="curve" smooth="yes"/>
      <point x="284" y="128"/>
      <point x="243" y="197"/>
      <point x="139" y="197" type="curve" smooth="yes"/>
      <point x="80" y="197.0"/>
      <point x="45.0" y="159"/>
      <point x="45" y="101" type="curve" smooth="yes"/>
      <point x="45" y="22"/>
      <point x="93" y="-16"/>
    </contour>
  </outline>
</glyph>
<glyph name="quotedbl.alt2" format="2">
  <advance width="548"/>
  <outline>
    <contour>
      <point x="130" y="347" type="curve" smooth="yes"/>
      <point x="169.46153846153845" y="347.0"/>
      <point x="196.9374907167479" y="367.8258669966549"/>
      <point x="211" y="407" type="curve" smooth="yes"/>
      <point x="240" y="488"/>
      <point x="249" y="582"/>
      <point x="235" y="647" type="curve" smooth="yes"/>
      <point x="226.9885471289919" y="684.0529695284124"/>
      <point x="193.73684210526315" y="715.0"/>
      <point x="137" y="715" type="curve" smooth="yes"/>
      <point x="84" y="715"/>
      <point x="58" y="677"/>
      <point x="64" y="621" type="curve" smooth="yes"/>
      <point x="70" y="569"/>
      <point x="61" y="505"/>
      <point x="46" y="461" type="curve" smooth="yes"/>
      <point x="31" y="416"/>
      <point x="73" y="347"/>
    </contour>
    <contour>
      <point x="397" y="347" type="curve" smooth="yes"/>
      <point x="435" y="347"/>
      <point x="461" y="368"/>
      <point x="475" y="407" type="curve" smooth="yes"/>
      <point x="503.687143940666" y="488.11537252188316"/>
      <point x="512.8373241657723" y="585.7669003613591"/>
      <point x="499" y="651" type="curve" smooth="yes"/>
      <point x="490.62565603674835" y="687.6377548392259"/>
      <point x="459" y="715"/>
      <point x="404" y="715" type="curve" smooth="yes"/>
      <point x="350.0" y="715.0"/>
      <point x="329.0" y="678"/>
      <point x="331" y="621" type="curve" smooth="yes"/>
      <point x="333" y="568"/>
      <point x="323" y="505"/>
      <point x="312" y="445" type="curve" smooth="yes"/>
      <point x="302" y="389"/>
      <point x="341" y="347"/>
    </contour>
  </outline>
</glyph>
<glyph name="s.alt1" format="2">
  <advance width="537"/>
  <anchor x="262" y="515" name="top"/>
  <anchor x="262" y="0" name="bottom"/>
  <outline>
    <contour>
      <point x="213" y="-10" type="curve" smooth="yes"/>
      <point x="386.0546623794212" y="-10.0"/>
      <point x="512.0" y="44.0"/>
      <point x="512" y="176" type="curve" smooth="yes"/>
      <point x="512" y="329"/>
      <point x="240" y="287"/>
      <point x="205" y="332" type="curve"/>
      <point x="227.94955025887396" y="347.6474206310504"/>
      <point x="268.0" y="358.0"/>
      <point x="325" y="358.0" type="curve" smooth="yes"/>
      <point x="369.0" y="358.0"/>
      <point x="377.0" y="352.0"/>
      <point x="412" y="352" type="curve" smooth="yes"/>
      <point x="444.0" y="352.0"/>
      <point x="463" y="376"/>
      <point x="463" y="415" type="curve" smooth="yes"/>
      <point x="463.0" y="475.3539823008849"/>
      <point x="422.9993570648409" y="524.0000069132814"/>
      <point x="330" y="525" type="curve" smooth="yes"/>
      <point x="198" y="526"/>
      <point x="42" y="480"/>
      <point x="42" y="344" type="curve" smooth="yes"/>
      <point x="42" y="181"/>
      <point x="296" y="224"/>
      <point x="340" y="181" type="curve"/>
      <point x="319.70292763503363" y="161.83054276642062"/>
      <point x="283.8976377952756" y="148.0"/>
      <point x="215" y="148" type="curve" smooth="yes"/>
      <point x="157.12977099236642" y="148.0"/>
      <point x="121.0" y="177.0"/>
      <point x="82" y="177" type="curve" smooth="yes"/>
      <point x="42" y="177.0"/>
      <point x="22.0" y="155"/>
      <point x="22" y="122" type="curve" smooth="yes"/>
      <point x="22.0" y="52.11764705882352"/>
      <point x="75.35195530726259" y="-10.0"/>
    </contour>
  </outline>
</glyph>
<glyph name="slash.alt1" format="2">
  <advance width="455"/>
  <outline>
    <contour>
      <point x="459" y="813"/>
      <point x="509" y="736"/>
      <point x="463" y="646" type="curve" smooth="yes"/>
      <point x="342" y="399"/>
      <point x="261" y="150"/>
      <point x="225" y="-165" type="curve" smooth="yes"/>
      <point x="219" y="-222"/>
      <point x="187" y="-253"/>
      <point x="137" y="-253" type="curve" smooth="yes"/>
      <point x="74" y="-253"/>
      <point x="39" y="-202"/>
      <point x="46" y="-138" type="curve" smooth="yes"/>
      <point x="83" y="177"/>
      <point x="195" y="543"/>
      <point x="292" y="729" type="curve" smooth="yes"/>
      <point x="322" y="787"/>
      <point x="355" y="814"/>
      <point x="397" y="814" type="curve" smooth="yes"/>
    </contour>
  </outline>
</glyph>
<glyph name="t.alt3" format="2">
  <advance width="503"/>
  <anchor x="152" y="700" name="top"/>
  <anchor x="273" y="0" name="bottom"/>
  <outline>
    <contour>
      <point x="224" y="298" type="curve" smooth="yes"/>
      <point x="224" y="412"/>
      <point x="244" y="490"/>
      <point x="244" y="558" type="curve" smooth="yes"/>
      <point x="244" y="675"/>
      <point x="198" y="716"/>
      <point x="126" y="716" type="curve" smooth="yes"/>
      <point x="74" y="716"/>
      <point x="54" y="693"/>
      <point x="54" y="654" type="curve" smooth="yes"/>
      <point x="54" y="619"/>
      <point x="68" y="588"/>
      <point x="68" y="530" type="curve" smooth="yes"/>
      <point x="68" y="446.4571428571"/>
      <point x="51" y="389.0047393365"/>
      <point x="51" y="292" type="curve" smooth="yes"/>
      <point x="51" y="109"/>
      <point x="119" y="-13"/>
      <point x="317" y="-13" type="curve" smooth="yes"/>
      <point x="417.277027027" y="-13"/>
      <point x="470" y="40"/>
      <point x="470" y="116" type="curve" smooth="yes"/>
      <point x="470" y="159.9436619718"/>
      <point x="455" y="181"/>
      <point x="426" y="181" type="curve" smooth="yes"/>
      <point x="396.3626373626" y="181"/>
      <point x="380.010989011" y="161"/>
      <point x="333" y="161" type="curve" smooth="yes"/>
      <point x="261.3153153153" y="161"/>
      <point x="224" y="195.5114503817"/>
    </contour>
    <contour>
      <point x="200" y="327" type="curve" smooth="yes"/>
      <point x="278" y="358"/>
      <point x="338" y="368"/>
      <point x="441" y="374" type="curve" smooth="yes"/>
      <point x="467" y="376"/>
      <point x="482" y="398"/>
      <point x="482" y="422" type="curve" smooth="yes"/>
      <point x="482" y="477"/>
      <point x="427" y="525"/>
      <point x="357" y="525" type="curve" smooth="yes"/>
      <point x="300" y="525"/>
      <point x="227" y="512"/>
      <point x="171" y="492" type="curve" smooth="yes"/>
      <point x="109" y="469"/>
      <point x="103" y="433"/>
      <point x="103" y="391" type="curve" smooth="yes"/>
      <point x="103" y="338"/>
      <point x="139" y="302"/>
    </contour>
  </outline>
</glyph>
<glyph name="tcaron.alt2" format="2">
  <advance width="503"/>
  <outline>
    <contour>
      <point x="491.0" y="818.0"/>
      <point x="451.9449541284404" y="854.0"/>
      <point x="392.0" y="854.0" type="curve" smooth="yes"/>
      <point x="343.0" y="854.0"/>
      <point x="321.0" y="825.0"/>
      <point x="321.0" y="788.0" type="curve" smooth="yes"/>
      <point x="321.0" y="759.0"/>
      <point x="330.0" y="728.0"/>
      <point x="304.0" y="667.0" type="curve" smooth="yes"/>
      <point x="294.0" y="643.0"/>
      <point x="291.0" y="628.0"/>
      <point x="291.0" y="614.0" type="curve" smooth="yes"/>
      <point x="291.0" y="587.0"/>
      <point x="309.0" y="572.0"/>
      <point x="346.0" y="572.0" type="curve" smooth="yes"/>
      <point x="381.0204081632653" y="572.0"/>
      <point x="406.29525276909146" y="587.4292444348595"/>
      <point x="434.0" y="618.0" type="curve" smooth="yes"/>
      <point x="475.0" y="661.0"/>
      <point x="491.0" y="711.0"/>
      <point x="491.0" y="767.0" type="curve" smooth="yes"/>
    </contour>
    <component base="t.alt2"/>
  </outline>
</glyph>
<glyph name="thorn.alt1" format="2">
  <advance width="640"/>
  <outline>
    <contour>
      <point x="236" y="52" type="curve" smooth="yes"/>
      <point x="236.0" y="340.4463601532567"/>
      <point x="254.0" y="469.1992337164751"/>
      <point x="254" y="573" type="curve" smooth="yes"/>
      <point x="254.0" y="757.7796610169491"/>
      <point x="189" y="810"/>
      <point x="129" y="810.0" type="curve" smooth="yes"/>
      <point x="86.0" y="810.0"/>
      <point x="63.0" y="783.0"/>
      <point x="63" y="740" type="curve" smooth="yes"/>
      <point x="63" y="687"/>
      <point x="76" y="671"/>
      <point x="76" y="552" type="curve" smooth="yes"/>
      <point x="76" y="412"/>
      <point x="55.0" y="239"/>
      <point x="55" y="-15" type="curve" smooth="yes"/>
      <point x="55.0" y="-215.0"/>
      <point x="128" y="-260.0"/>
      <point x="179" y="-260" type="curve" smooth="yes"/>
      <point x="224" y="-260.0"/>
      <point x="256.0" y="-244"/>
      <point x="256" y="-189" type="curve" smooth="yes"/>
      <point x="256.0" y="-102"/>
      <point x="236.0" y="-90"/>
    </contour>
    <contour>
      <point x="292" y="525.0" type="curve" smooth="yes"/>
      <point x="193" y="525.0"/>
      <point x="146.0" y="508"/>
      <point x="146" y="444" type="curve" smooth="yes"/>
      <point x="146.0" y="389"/>
      <point x="189" y="345.0"/>
      <point x="229" y="345" type="curve" smooth="yes"/>
      <point x="256" y="345"/>
      <point x="264" y="350"/>
      <point x="291" y="350" type="curve" smooth="yes"/>
      <point x="368.0" y="350.0"/>
      <point x="432.0" y="301.0"/>
      <point x="432" y="227" type="curve" smooth="yes"/>
      <point x="432" y="178"/>
      <point x="396" y="159"/>
      <point x="343" y="159" type="curve" smooth="yes"/>
      <point x="289" y="159.0"/>
      <point x="263" y="192.0"/>
      <point x="224" y="192" type="curve" smooth="yes"/>
      <point x="191" y="192.0"/>
      <point x="176.0" y="175.0"/>
      <point x="176" y="141" type="curve" smooth="yes"/>
      <point x="176.0" y="60"/>
      <point x="260" y="-10.0"/>
      <point x="372" y="-10" type="curve" smooth="yes"/>
      <point x="528" y="-10.0"/>
      <point x="614.0" y="88.0"/>
      <point x="614" y="200" type="curve" smooth="yes"/>
      <point x="614.0" y="409"/>
      <point x="462" y="525.0"/>
    </contour>
  </outline>
</glyph>
<glyph name="u.alt3" format="2">
  <advance width="655"/>
  <anchor x="342.0" y="515" name="top"/>
  <anchor x="342.0" y="0" name="bottom"/>
  <anchor x="414.0" y="5" name="ogonek"/>
  <outline>
    <contour>
      <point x="349" y="-10" type="curve" smooth="yes"/>
      <point x="490" y="-10"/>
      <point x="601" y="118"/>
      <point x="601" y="383" type="curve" smooth="yes"/>
      <point x="601" y="473"/>
      <point x="563" y="517"/>
      <point x="498" y="517" type="curve" smooth="yes"/>
      <point x="444" y="517"/>
      <point x="429" y="488"/>
      <point x="429" y="439" type="curve" smooth="yes"/>
      <point x="429" y="407"/>
      <point x="433" y="382"/>
      <point x="433" y="342" type="curve" smooth="yes"/>
      <point x="433" y="256"/>
      <point x="400" y="165"/>
      <point x="337" y="165" type="curve" smooth="yes"/>
      <point x="287" y="165"/>
      <point x="224" y="245"/>
      <point x="224" y="317" type="curve" smooth="yes"/>
      <point x="224" y="350"/>
      <point x="246" y="386"/>
      <point x="246" y="411" type="curve" smooth="yes"/>
      <point x="246" y="468"/>
      <point x="193" y="518"/>
      <point x="137" y="518" type="curve" smooth="yes"/>
      <point x="111" y="518"/>
      <point x="91" y="501"/>
      <point x="83" y="479" type="curve" smooth="yes"/>
      <point x="61" y="425"/>
      <point x="51" y="376"/>
      <point x="51" y="317" type="curve" smooth="yes"/>
      <point x="51" y="181"/>
      <point x="168" y="-10"/>
    </contour>
  </outline>
</glyph>
<glyph name="v.alt1" format="2">
  <advance width="632"/>
  <anchor x="306" y="515" name="top"/>
  <anchor x="306" y="0" name="bottom"/>
  <outline>
    <contour>
      <point x="195" y="67" type="curve" smooth="yes"/>
      <point x="230" y="13"/>
      <point x="264" y="-10"/>
      <point x="315" y="-10" type="curve" smooth="yes"/>
      <point x="346" y="-10"/>
      <point x="361" y="3"/>
      <point x="376" y="39" type="curve" smooth="yes"/>
      <point x="440" y="189"/>
      <point x="515" y="241"/>
      <point x="597" y="369" type="curve" smooth="yes"/>
      <point x="604" y="380"/>
      <point x="609" y="396"/>
      <point x="609" y="412" type="curve" smooth="yes"/>
      <point x="609" y="467"/>
      <point x="561" y="526"/>
      <point x="524" y="526" type="curve" smooth="yes"/>
      <point x="497" y="526"/>
      <point x="483" y="522"/>
      <point x="464" y="498" type="curve" smooth="yes"/>
      <point x="389" y="403"/>
      <point x="320" y="324"/>
      <point x="267" y="200" type="curve"/>
      <point x="316" y="190" type="line"/>
      <point x="289" y="256"/>
      <point x="261" y="327"/>
      <point x="238" y="392" type="curve" smooth="yes"/>
      <point x="212" y="463"/>
      <point x="161" y="524"/>
      <point x="72" y="524" type="curve" smooth="yes"/>
      <point x="37" y="524"/>
      <point x="19" y="502"/>
      <point x="19" y="474" type="curve" smooth="yes"/>
      <point x="19" y="411"/>
      <point x="59" y="374"/>
      <point x="107" y="252" type="curve" smooth="yes"/>
      <point x="129" y="197"/>
      <point x="168" y="108"/>
    </contour>
  </outline>
</glyph>
<glyph name="w.alt3" format="2">
  <advance width="917"/>
  <anchor x="444" y="515" name="top"/>
  <anchor x="444" y="0" name="bottom"/>
  <outline>
    <contour>
      <point x="172" y="469" type="curve" smooth="yes"/>
      <point x="218" y="375"/>
      <point x="213" y="233"/>
      <point x="280" y="163" type="curve" smooth="yes"/>
      <point x="303" y="139"/>
      <point x="201" y="141"/>
      <point x="216" y="162" type="curve" smooth="yes"/>
      <point x="258" y="228"/>
      <point x="260" y="260"/>
      <point x="301" y="368" type="curve" smooth="yes"/>
      <point x="338" y="466"/>
      <point x="372" y="526"/>
      <point x="442" y="526" type="curve" smooth="yes"/>
      <point x="516" y="526"/>
      <point x="557" y="471"/>
      <point x="592" y="381" type="curve" smooth="yes"/>
      <point x="639" y="259"/>
      <point x="631" y="199"/>
      <point x="691" y="172" type="curve" smooth="yes"/>
      <point x="749" y="147"/>
      <point x="606" y="126"/>
      <point x="635" y="160" type="curve" smooth="yes"/>
      <point x="682" y="215"/>
      <point x="688" y="367"/>
      <point x="720" y="442" type="curve" smooth="yes"/>
      <point x="736" y="479"/>
      <point x="771" y="528"/>
      <point x="826" y="528" type="curve" smooth="yes"/>
      <point x="874" y="528"/>
      <point x="918" y="481"/>
      <point x="918" y="432" type="curve" smooth="yes"/>
      <point x="918" y="411"/>
      <point x="907" y="391"/>
      <point x="892" y="373" type="curve" smooth="yes"/>
      <point x="845" y="315"/>
      <point x="838" y="238"/>
      <point x="816" y="157" type="curve" smooth="yes"/>
      <point x="780" y="19"/>
      <point x="726" y="-13"/>
      <point x="682" y="-13" type="curve" smooth="yes"/>
      <point x="632" y="-13"/>
      <point x="592" y="11"/>
      <point x="549" y="82" type="curve" smooth="yes"/>
      <point x="484" y="189"/>
      <point x="472" y="311"/>
      <point x="437" y="352" type="curve" smooth="yes"/>
      <point x="414" y="377"/>
      <point x="488" y="382"/>
      <point x="463" y="351" type="curve" smooth="yes"/>
      <point x="416" y="286"/>
      <point x="409" y="183"/>
      <point x="357" y="72" type="curve" smooth="yes"/>
      <point x="332" y="16"/>
      <point x="293" y="-15"/>
      <point x="253" y="-15" type="curve" smooth="yes"/>
      <point x="172" y="-15"/>
      <point x="122" y="45"/>
      <point x="84" y="182" type="curve" smooth="yes"/>
      <point x="52" y="298"/>
      <point x="35" y="359"/>
      <point x="12" y="405" type="curve" smooth="yes"/>
      <point x="-30" y="480"/>
      <point x="16" y="529"/>
      <point x="80" y="529" type="curve" smooth="yes"/>
      <point x="124" y="529"/>
      <point x="148" y="517"/>
    </contour>
  </outline>
</glyph>
<glyph name="x.alt1" format="2">
  <advance width="589"/>
  <anchor x="274" y="515" name="top"/>
  <anchor x="288" y="0" name="bottom"/>
  <outline>
    <contour>
      <point x="509" y="365" type="curve" smooth="yes"/>
      <point x="383.9969105811" y="289.9981463486"/>
      <point x="282" y="172"/>
      <point x="197" y="48" type="curve" smooth="yes"/>
      <point x="165" y="0"/>
      <point x="135" y="-17"/>
      <point x="98" y="-17" type="curve" smooth="yes"/>
      <point x="46" y="-17"/>
      <point x="17" y="25"/>
      <point x="53" y="113" type="curve" smooth="yes"/>
      <point x="100" y="230"/>
      <point x="220.342552601" y="390.3092752613"/>
      <point x="376" y="490" type="curve" smooth="yes"/>
      <point x="412" y="513"/>
      <point x="449" y="525"/>
      <point x="466" y="525" type="curve" smooth="yes"/>
      <point x="520" y="525"/>
      <point x="543" y="489"/>
      <point x="543" y="423" type="curve" smooth="yes"/>
      <point x="543" y="397"/>
      <point x="535" y="381"/>
    </contour>
    <contour>
      <point x="520" y="146" type="curve" smooth="yes"/>
      <point x="561" y="88"/>
      <point x="567" y="61"/>
      <point x="567" y="42" type="curve" smooth="yes"/>
      <point x="567" y="5"/>
      <point x="537" y="-16"/>
      <point x="481" y="-16" type="curve" smooth="yes"/>
      <point x="459" y="-16"/>
      <point x="425" y="-8"/>
      <point x="388" y="43" type="curve" smooth="yes"/>
      <point x="319" y="139"/>
      <point x="183" y="276"/>
      <point x="92" y="353" type="curve" smooth="yes"/>
      <point x="59" y="380"/>
      <point x="37" y="398.2815533981"/>
      <point x="37" y="441" type="curve" smooth="yes"/>
      <point x="37" y="488.4782608696"/>
      <point x="63.2153846154" y="525"/>
      <point x="108" y="525" type="curve" smooth="yes"/>
      <point x="135.1290322581" y="525"/>
      <point x="156.5919431485" y="515.7662440599"/>
      <point x="195" y="486" type="curve" smooth="yes"/>
      <point x="266" y="433"/>
      <point x="455" y="235"/>
    </contour>
  </outline>
</glyph>
<glyph name="y.alt3" format="2">
  <advance width="623"/>
  <anchor x="300" y="515" name="top"/>
  <anchor x="320" y="-250" name="bottom"/>
  <outline>
    <contour>
      <point x="235" y="435" type="curve" smooth="yes"/>
      <point x="235" y="479"/>
      <point x="206" y="523"/>
      <point x="129" y="523.0" type="curve" smooth="yes"/>
      <point x="72" y="523"/>
      <point x="38" y="494"/>
      <point x="38" y="343" type="curve" smooth="yes"/>
      <point x="38" y="158"/>
      <point x="124" y="78"/>
      <point x="266" y="78" type="curve" smooth="yes"/>
      <point x="321" y="78"/>
      <point x="398" y="100"/>
      <point x="454" y="205" type="curve" smooth="yes"/>
      <point x="468" y="232"/>
      <point x="403" y="255"/>
      <point x="403" y="241" type="curve" smooth="yes"/>
      <point x="403" y="149"/>
      <point x="408" y="99"/>
      <point x="408" y="-5" type="curve" smooth="yes"/>
      <point x="408.0" y="-57.0"/>
      <point x="385.0" y="-84.0"/>
      <point x="323" y="-84" type="curve" smooth="yes"/>
      <point x="204" y="-84"/>
      <point x="184" y="-44"/>
      <point x="137" y="-44" type="curve" smooth="yes"/>
      <point x="97" y="-44"/>
      <point x="74.0" y="-67"/>
      <point x="74" y="-110" type="curve" smooth="yes"/>
      <point x="74" y="-196"/>
      <point x="140" y="-261"/>
      <point x="329" y="-261" type="curve" smooth="yes"/>
      <point x="471" y="-261.0"/>
      <point x="575.0" y="-177.0"/>
      <point x="575" y="-5" type="curve" smooth="yes"/>
      <point x="575" y="186"/>
      <point x="533" y="232"/>
      <point x="552" y="400" type="curve" smooth="yes"/>
      <point x="561" y="480.0"/>
      <point x="510.0" y="522.0"/>
      <point x="450" y="522.0" type="curve" smooth="yes"/>
      <point x="406" y="522"/>
      <point x="389.0" y="503.0"/>
      <point x="384" y="460" type="curve" smooth="yes"/>
      <point x="371" y="351"/>
      <point x="326" y="253"/>
      <point x="256" y="253" type="curve" smooth="yes"/>
      <point x="185" y="253"/>
      <point x="235" y="371"/>
    </contour>
  </outline>
</glyph>
<glyph name="z.alt1" format="2">
  <advance width="625"/>
  <anchor x="297" y="515" name="top"/>
  <anchor x="297" y="0" name="bottom"/>
  <outline>
    <contour>
      <point x="92" y="504" type="curve" smooth="yes"/>
      <point x="169" y="517"/>
      <point x="249" y="524"/>
      <point x="325" y="524" type="curve" smooth="yes"/>
      <point x="477" y="524"/>
      <point x="523" y="449"/>
      <point x="523" y="374" type="curve" smooth="yes"/>
      <point x="523" y="314.4090909091"/>
      <point x="450" y="201"/>
      <point x="203" y="150" type="curve"/>
      <point x="255" y="180" type="line"/>
      <point x="248" y="165"/>
      <point x="248" y="156"/>
      <point x="253" y="156" type="curve" smooth="yes"/>
      <point x="328" y="156"/>
      <point x="389" y="172"/>
      <point x="483" y="172" type="curve" smooth="yes"/>
      <point x="547" y="172"/>
      <point x="584" y="121"/>
      <point x="584" y="60" type="curve" smooth="yes"/>
      <point x="584" y="24"/>
      <point x="565" y="0"/>
      <point x="520" y="0" type="curve" smooth="yes"/>
      <point x="440" y="0"/>
      <point x="318" y="-10"/>
      <point x="223" y="-10" type="curve" smooth="yes"/>
      <point x="80" y="-10"/>
      <point x="44" y="57.375"/>
      <point x="44" y="130" type="curve" smooth="yes"/>
      <point x="44" y="198"/>
      <point x="73" y="226"/>
      <point x="106" y="235" type="curve" smooth="yes"/>
      <point x="279.102004904" y="284.6023288906"/>
      <point x="330.9287767975" y="330.857553595"/>
      <point x="359" y="387" type="curve"/>
      <point x="401" y="336" type="line"/>
      <point x="373" y="350"/>
      <point x="360" y="355"/>
      <point x="302" y="355" type="curve" smooth="yes"/>
      <point x="203" y="355"/>
      <point x="150" y="332"/>
      <point x="119" y="332" type="curve" smooth="yes"/>
      <point x="80" y="332"/>
      <point x="40" y="385"/>
      <point x="40" y="440" type="curve" smooth="yes"/>
      <point x="40" y="473"/>
      <point x="51" y="495"/>
    </contour>
  </outline>
</glyph>
<glyph name="zero.alt1" format="2">
  <advance width="700"/>
  <outline>
    <contour>
      <point x="305" y="487" type="curve" smooth="yes"/>
      <point x="223" y="431"/>
      <point x="194" y="364"/>
      <point x="194" y="270" type="curve" smooth="yes"/>
      <point x="194" y="206"/>
      <point x="234" y="160"/>
      <point x="315" y="160" type="curve" smooth="yes"/>
      <point x="406" y="160"/>
      <point x="505" y="251"/>
      <point x="505" y="417" type="curve" smooth="yes"/>
      <point x="505" y="485"/>
      <point x="479" y="539"/>
      <point x="400" y="539" type="curve" smooth="yes"/>
      <point x="320" y="539"/>
      <point x="285" y="507"/>
      <point x="247" y="475" type="curve" smooth="yes"/>
      <point x="228" y="459"/>
      <point x="208" y="446"/>
      <point x="189" y="446" type="curve" smooth="yes"/>
      <point x="122" y="446"/>
      <point x="94" y="508"/>
      <point x="94" y="548" type="curve" smooth="yes"/>
      <point x="94" y="612"/>
      <point x="202" y="711"/>
      <point x="400" y="711" type="curve" smooth="yes"/>
      <point x="594" y="711"/>
      <point x="678" y="599"/>
      <point x="678" y="417" type="curve" smooth="yes"/>
      <point x="678" y="128"/>
      <point x="494" y="-11"/>
      <point x="317" y="-11" type="curve" smooth="yes"/>
      <point x="140" y="-11"/>
      <point x="21" y="74"/>
      <point x="21" y="270" type="curve" smooth="yes"/>
      <point x="21" y="502"/>
      <point x="193" y="623"/>
      <point x="266" y="623" type="curve" smooth="yes"/>
      <point x="315" y="623"/>
      <point x="334" y="603"/>
      <point x="334" y="549" type="curve" smooth="yes"/>
      <point x="334" y="528"/>
      <point x="324" y="500"/>
    </contour>
  </outline>
</glyph>
